<svg id="Capa_1" data-name="Capa 1" xmlns="http://www.w3.org/2000/svg" viewBox="0 0 1028.97 296.1"><defs><style>.cls-1{fill:#fff;stroke:#e0201f;stroke-width:16px;}.cls-1,.cls-2,.cls-3,.cls-4,.cls-5,.cls-6,.cls-7{stroke-miterlimit:10;}.cls-2,.cls-3,.cls-4,.cls-5,.cls-6,.cls-7{fill:#db1616;stroke:#db1616;}.cls-2{stroke-width:9px;}.cls-3{stroke-width:8px;}.cls-4{stroke-width:10px;}.cls-5{stroke-width:4px;}.cls-6{stroke-width:3px;}.cls-7{stroke-width:2px;}</style></defs><title>logotipo</title><path class="cls-1" d="M75.2,72.27C45.57,89.76,27.49,79,15,96.11c-8.09,11.11-7.14,24.79-6.81,29.52.91,13.06,6.56,19.94,17,37.47,14.67,24.56,22,36.84,27.25,53.37C58,233.73,57,242.13,66.12,264.16,72.75,280.23,77,284.72,82,286.87c7.85,3.34,16.7-.38,34.06-7.95,16.58-7.23,26.71-11.64,37.47-21.57,15.76-14.54,13.9-23.4,26.12-28.39,10.45-4.26,12.15,2.08,32.93,1.14,17.22-.78,33.12-5.92,50-11.35,7.75-2.5,9.37-3.37,14.76-4.54,15.51-3.37,22.78-.67,34.06-1.14,19.51-.8,18.31-9.71,48.82-17,12.37-3,21.24-5,32.93-3.41,15.2,2.08,17,7.83,29.52,9.08,10.18,1,13.06-2.38,40.88-12.49,31.63-11.49,41.66-12.09,50-7.95,2.12,1.06,7.6,3.79,9.08,9.08,1.92,6.85-4.85,10.87-9.08,22.71-1,2.71-6.48,18.14,0,29.52,1.56,2.75,5.35,7.94,18.17,12.49,17,6,29.52,3.7,73.8,0,18.62-1.56,23.11-1.7,29.52-1.14,16.32,1.44,21.9,5.45,37.47,9.08,11.17,2.61,24.86,2.88,52.23,3.41,31.32.61,29.52-.91,50,0,8.18.36,23.62,1.76,54.5,4.54a197,197,0,0,0,44.28-1.14c13.86-1.92,18.46-4.09,20.44-7.95,3-5.9-2.33-11.39-4.54-29.52-1.13-9.3-1.64-14,1.14-17,2.22-2.4,6.66-4,27.25,1.14,20.35,5.08,48.82,14.76,48.82,14.76,10.55,3.59,13.76,4.77,18.17,3.41,13.37-4.12,17.56-25.32,18.17-28.39,4.12-20.83-6.39-26.29-2.27-44.28,3.7-16.15,13.31-16.73,18.17-31.79,5.72-17.72-.47-38.91-10.22-52.23-26.78-36.58-95.46-34.32-110.14-31.79a36.41,36.41,0,0,1-13.63,0c-12.05-2.36-19.62-10.6-21.57-12.49-19-18.36-50.17,12.55-86.3-1.14-9.9-3.75-6.94-5.57-18.55-11-32.89-15.32-53.24.94-98.41-.38-43-1.25-42.52-16.54-78.35-12.49-27.76,3.14-29.16,12.44-61.31,14.76-12.67.92-28.63,0-60.56-1.89-25.18-1.48-30.51-2.59-41.63,0-13.32,3.1-19.33,7.87-33.31,8.33-11.66.38-16.38-2.65-26.49-4.54-32.22-6-44.9,13.44-102.19,18.17-9.36.77-7.22.1-12.87.76-44.86,5.19-60.2,33.47-82.51,26.49-7.71-2.41-6.63-6-22-12.87-8.13-3.63-17.21-7.68-26.49-7.57C97.46,50.5,94,61.17,75.2,72.27Z"/><path class="cls-2" d="M138.9,99.88s2.75,5.73,2,9.68c-.57,3-4.28,6.31-4.79,6.57a7.54,7.54,0,0,1-3.29.48,10.44,10.44,0,0,0-3.37.34c-1.61.6-4.35,2.49-7.94,5.79-3.76,3.46-6.89,5.79-9.36,6.9a11.49,11.49,0,0,1-2.71.71,15.09,15.09,0,0,0-2.68.6,20.83,20.83,0,0,0-4.5,2.62A20.15,20.15,0,0,1,98.51,136a11.55,11.55,0,0,1-3.06.46,6.82,6.82,0,0,0-2.49.43q-2.76,1.72-3.65,5.88a12.07,12.07,0,0,0,.88,8c2.75,3,4.12,4.43,6.86,7.39a22,22,0,0,1,1.57,1.95c.68.92,1.17,1.52,1.38,1.78a3.18,3.18,0,0,0,3.15,1.35c1.13-.23,3.41-2,6.77-5.24s6.43-5.25,8.81-5.9a7,7,0,0,1,2.46-.2,12.11,12.11,0,0,0,2.84,0c2.53-2.59,6.51-4.75,11.87-6.35s9.13-3.27,11-5c2.06.36,3.71,2.09,5,5a25.42,25.42,0,0,1,2,7.68,6.74,6.74,0,0,1-3.89,3.65,46.35,46.35,0,0,0-5.47,2.74,13.13,13.13,0,0,0-2.39,2.92,9,9,0,0,1-2.53,2.82,8.25,8.25,0,0,1-3,.66,17.18,17.18,0,0,0-3.2.49,22,22,0,0,0-3.54,1.79c-1.79,1.05-3.09,1.83-3.89,2.19-1.3.59-3,1.28-5,2-2.61.91-11.64,2.85-12.2,3.1-3.53,1.37,1.42,1.71.11,3.76q1.28,2.12,4.86,10.39a51.31,51.31,0,0,0,5.75,10.46c18,23.82,9.07,18.86,7.1,24.38-8.31-1.44-9.06,1.06-8.84,5-2.19-.07-5.64,3.65-7.09,2.08-.26-.23-.3-7-3.39-11.14a51.44,51.44,0,0,0-3.6-3.81,14,14,0,0,1-2.67-3.31,40.86,40.86,0,0,1-1.89-6.51,24.05,24.05,0,0,0-2.47-6.56A11.33,11.33,0,0,0,94,197.61a12.35,12.35,0,0,1-2.52-2.54,7.09,7.09,0,0,1-.84-2.27,8.33,8.33,0,0,0-.73-2.24,14.91,14.91,0,0,0-3-3.13,14.3,14.3,0,0,1-2.9-3.17,24.87,24.87,0,0,1-2.3-6.94,20.64,20.64,0,0,0-2-6.15A9.45,9.45,0,0,0,77,168.65a16.15,16.15,0,0,1-2.63-2A25.65,25.65,0,0,1,70,159a10.59,10.59,0,0,1-.4-2.72,8,8,0,0,0-.51-2.75,14,14,0,0,0-3.47-3.41,13.07,13.07,0,0,1-3.61-3.8,5.25,5.25,0,0,1-.41-2.24,11.47,11.47,0,0,0-.24-2.81c-.18-.66-.46-1.67-.89-2.91a16.07,16.07,0,0,1-.71-2.25,5.68,5.68,0,0,1,1.66-4.56q4.08-.73,9.67-4.56c1.05-.72,2.68-1.92,4.88-3.5s3.75-2.63,4.86-3.37c-.73.47,6.6-3.88,22.22-12.62a7.8,7.8,0,0,1,2.3-.66,5.43,5.43,0,0,0,2-.61c1.27-.8.91-2.16,3.33-3.41,0,0,8.67,7.28,9.42,6.83,1.44-.87-1.08-10.5-1.08-10.5a33.81,33.81,0,0,0,5.57-2.33,12.53,12.53,0,0,0,2.7-1.56,6,6,0,0,1,2.54-1.1C135.9,98,138.9,99.88,138.9,99.88Z"/><path class="cls-2" d="M257.56,100.25c.89,6.33,1.69,10.87,2.28,13.55a10.64,10.64,0,0,0,1.23,2.53,9.82,9.82,0,0,1,1.17,2.61,4.75,4.75,0,0,1-.25,2.21,6.78,6.78,0,0,0-.34,2.43c.13,1.24,1.85,8.59,5.24,21.89.07.3.38,1,.83,2.14a6.11,6.11,0,0,1,.53,2.06,17.43,17.43,0,0,1-1.68,4.65c-1,2.12-1.11,3.85-.48,5.17a26.25,26.25,0,0,0-2.12,4.14,14.26,14.26,0,0,1-2.69,4.33,7.14,7.14,0,0,1-1.67,1,7,7,0,0,0-1.71,1.16,53,53,0,0,0-3.8,4.86,17.28,17.28,0,0,1-4.23,4.36,14,14,0,0,1-6,1.71,37.88,37.88,0,0,0-6.58,1.05,20.23,20.23,0,0,0-2.64,1.28c-1.57.85-2.6,1.41-3.1,1.66a14.17,14.17,0,0,1-7.95,1.73,6,6,0,0,1-2.92-1.35,10.87,10.87,0,0,0-3-1.73,36.72,36.72,0,0,0-4.23-.61,11.41,11.41,0,0,1-4.25-1.14c-2.28-1.3-3.63-4.8-5.06-6.68-.34-.45-1.82-1-3.45-1.46a7.64,7.64,0,0,1-3-1.49c-1.33-1.26-2.35-3.36-3-6.3-1.07-4.75-1.77-7.56-2.1-8.38a11.43,11.43,0,0,0-1.24-2.22,9.11,9.11,0,0,1-1.21-2.09,25.58,25.58,0,0,1-.77-7.14c0-3.1-.25-5.31-.82-6.58a13.24,13.24,0,0,0-3.3-3.82,7.67,7.67,0,0,1-2.7-3.77q-.37.78-2.37-10.78a9.22,9.22,0,0,1,.13-2.37,9.79,9.79,0,0,0,0-2.69,37.59,37.59,0,0,0-.9-4.09c-.6-2.22-.95-3.58-1-4.06-.62-3-.55-5.11.31-6.25,1-1.36,3.05-2.29,6-2.68,3.21-.42,5.4.17,6.53,1.81.09,1.58.88,4.42,2.25,8.48,1.15,3.43,1.48,6.07,1.07,7.81,2.16,2.62,3.48,6.37,4,11.26.71,6.62,1.28,10.67,1.75,12a13.8,13.8,0,0,0,1.33,2.34,12.63,12.63,0,0,1,1.26,2.36,52.08,52.08,0,0,1,1.26,6.33c.44,2.66,1,5,1.81,6.19.54.74,2.06,1.24,3.84,1.46a6.59,6.59,0,0,1,3.93,1.58,38.19,38.19,0,0,1,2.59,4.71c1,1.94,2.29,3,4,3.22a53.84,53.84,0,0,0,9-3.6c4.14,1.92,8.48,1.44,13.12-1.42a3.72,3.72,0,0,0,1.79-2.9,13.72,13.72,0,0,1,.93-4.14,9.84,9.84,0,0,1,2.85-2.78c1.21-.9,1.82-1.83,1.81-2.68a4.59,4.59,0,0,0-1.17-1.86,7.53,7.53,0,0,1-1.46-2.47,3.35,3.35,0,0,1,.13-1.59,5.29,5.29,0,0,0,.2-1.87,5.66,5.66,0,0,0-.86-2.06,5.67,5.67,0,0,1-.85-1.72,7.85,7.85,0,0,1,.2-2.21,4.64,4.64,0,0,0,0-2,5.65,5.65,0,0,0-1.19-1.92,8.45,8.45,0,0,1-1.31-1.76,16.66,16.66,0,0,1-1.33-5.82,55.78,55.78,0,0,0-.82-6.47,6.21,6.21,0,0,0-.88-1.78,5,5,0,0,1-.78-1.67,37.55,37.55,0,0,1-.51-5.52,32.7,32.7,0,0,0-.43-5.2,40,40,0,0,0-1.32-4.2c-.83-2.35-1.29-3.75-1.39-4.18q-1.57-4.89-.22-7.21c1.33-2.27,4.37-3.66,9.08-4.16,4.4-.47,7.8,0,10.14,1.45A116.44,116.44,0,0,1,257.56,100.25Z"/><path class="cls-2" d="M372.86,83q-.41,5.86.18,7.9c1.68,6.39,2.63,10,2.85,10.94a28.73,28.73,0,0,0,1.07,3.3,8.66,8.66,0,0,1,.64,2.94,9.48,9.48,0,0,1-.73,3,6.46,6.46,0,0,0-.59,2.87,10.91,10.91,0,0,0,1.44,3.26,8.26,8.26,0,0,1,1.26,3.63c0,.09-.71,2.33-2.15,6.71a5.63,5.63,0,0,0,1.25,2.51,19,19,0,0,1,1.55,2,55.63,55.63,0,0,0,.75,7.55,19.61,19.61,0,0,1,0,7.28,20.61,20.61,0,0,0,2.6,4.94,8,8,0,0,1,1.34,5.52c-.27,1.69-1.63,2.77-4.08,3.23-.66.12-1.87.32-3.57.51s-3,.32-3.87.49a12.27,12.27,0,0,0-2.82,1.14,6,6,0,0,1-2.8.79,4,4,0,0,1-2.6-1.27c-1.88-1.76-2.74-2.58-2.58-2.46a53.4,53.4,0,0,0-4.71-2.86A14.55,14.55,0,0,1,353.5,154a11.33,11.33,0,0,1-1.36-2.9,18.87,18.87,0,0,0-1.34-3.18,7.87,7.87,0,0,0-3-2.24,14.47,14.47,0,0,1-3.34-2.11,19,19,0,0,1-2.14-2.92,24.51,24.51,0,0,0-2.37-3.31c-.54-.57-1.29-1.24-2.15-2s-1.49-1.37-1.8-1.7c-1.18-1.27-1.64-3.62-2.33-5.06-.4-.83-2.2-1.82-4.11-2.6a48.41,48.41,0,0,1-4.64-2.08c-.87-3.62-3.55-7-8.08-10a9.82,9.82,0,0,0-5.64-2,4.09,4.09,0,0,0-3.86,3.13c1.19,2.1,2.25,5.45,3.21,10,1.17,5.48,2.09,9.16,2.7,11a15.69,15.69,0,0,0,1.17,2.13,5.82,5.82,0,0,1,.91,2,6.84,6.84,0,0,1-.5,3.19,10.19,10.19,0,0,0-.8,3.18,13.19,13.19,0,0,0,1.42,4.92,22.77,22.77,0,0,1,1.81,5.06A6,6,0,0,1,317,159a10.67,10.67,0,0,0-.49,2.42,35.06,35.06,0,0,0,.93,3.59,3.56,3.56,0,0,1-.39,3.25c-5.2,1.75-9,2.57-11.37,2.44a14.94,14.94,0,0,1-3.34-9.59,9.07,9.07,0,0,1,.92-2.72,4.92,4.92,0,0,0,.61-2.45c-.13-.79-.94-1.74-2.3-2.77a9,9,0,0,1-2.77-2.82c-.93-2-1.22-5.4-.84-10a10.27,10.27,0,0,1,.9-2.57,5.19,5.19,0,0,0,.67-2.6,4.88,4.88,0,0,0-1.82-2.15,7.91,7.91,0,0,1-2.19-2.43,5.2,5.2,0,0,1-.26-1.93,9.28,9.28,0,0,0-.28-2.43,18.67,18.67,0,0,0-1.71-3.73,13.7,13.7,0,0,1-1.59-3.46,17.25,17.25,0,0,1,.24-5.07,10.4,10.4,0,0,0-.07-4.73c0,.09-1.54-1.66-4.71-5.23,1.89-2.85,2.35-6.74,1.18-11.41-.25-1-.91-3.12-1.91-6.38a64.87,64.87,0,0,1-1.82-7c1.85-1.8,5.06-3,9.48-3.54,1.28-.17,3.25-.36,5.88-.53s4.54-.3,5.74-.41a9.59,9.59,0,0,1,3.48,4,29.71,29.71,0,0,0,2.27,4.36c.77,1,2.8,2.62,6,4.74a11.62,11.62,0,0,1,5,6,4,4,0,0,1,2.91,1.38c1.71,2,2.47,2.88,2.27,2.68a10.26,10.26,0,0,0,3.18,1.7,7.43,7.43,0,0,1,2.74,1.49,4.14,4.14,0,0,1,.75,1.65,10.11,10.11,0,0,0,.85,2.2,8.76,8.76,0,0,0,1.71,1.86,6.86,6.86,0,0,1,1.52,1.67,8.43,8.43,0,0,1,.56,2.38,5,5,0,0,0,.7,2.29,4.47,4.47,0,0,0,2.19,1.16,15,15,0,0,1,2.61,1,30.82,30.82,0,0,1,3.75,3.33,32.36,32.36,0,0,0,3.9,3.46c3.08,2.15,5.58,1.48,7.56-2a8.06,8.06,0,0,0-1.32-5.09A31.15,31.15,0,0,1,356,110a28.31,28.31,0,0,1-.63-7.43,41.32,41.32,0,0,0-.52-8.22A18.61,18.61,0,0,0,353,90.07a17.06,17.06,0,0,1-1.73-4,10.76,10.76,0,0,1,.58-4.72A26.23,26.23,0,0,0,353,76.45c0-.14-.22-1.75-.67-4.76a4.75,4.75,0,0,1,1.09-4.15c5.82-2.6,8.29-1.73,10.8-2.39,1.46-.86,1,5.2,1.32,5.14,2.09-.44,1.72-6.39,3.84-4.5a8.61,8.61,0,0,1,3.18,5.78,3.63,3.63,0,0,1-.74,2.54,5.32,5.32,0,0,0-1.21,2.53A7.15,7.15,0,0,1,372.86,83Z"/><path class="cls-2" d="M492.94,86c2.71,5,4.12,7.69,4.25,8.1a21.08,21.08,0,0,1,.34,4.87,28.4,28.4,0,0,0,.38,5.36,7.63,7.63,0,0,0,.9,2,4.65,4.65,0,0,1,.68,2.19c0,1.05-1.14,3.11-3.17,6.1s-3.09,5.08-3.2,6.25a8.36,8.36,0,0,0,1,3.29,6.16,6.16,0,0,1,.76,3.3c.11-.52-1.33.77-4.29,3.89a7.07,7.07,0,0,0-1,2,9,9,0,0,1-1.15,2.19,13.47,13.47,0,0,1-2.28,1.86,13.86,13.86,0,0,0-2.4,2.09,17.49,17.49,0,0,0-1.49,2.36,14.41,14.41,0,0,1-1.42,2.22,4.6,4.6,0,0,1-1.52,1,8.07,8.07,0,0,0-1.67.91,18.28,18.28,0,0,0-2,2.21c-1,1.26-1.73,2-2,2.36a10,10,0,0,1-5.49,3.45,13,13,0,0,1-4.47-.41,21.39,21.39,0,0,0-5.52-.64c-.94.08-5.29.83-12.92,2.23-2.75.5-4.23.76-4.42.79a7.55,7.55,0,0,1-3.91-1c-3.46,1.87-8.9,2.13-16.39.86a25.87,25.87,0,0,0-2.34-4.69,25,25,0,0,1-2.34-5,7.58,7.58,0,0,1-.18-2.3,11.45,11.45,0,0,0-.13-2.45,7.46,7.46,0,0,0-.9-2.13,8.4,8.4,0,0,1-1-2.06,6.18,6.18,0,0,1,.11-1.85,12.59,12.59,0,0,0,.22-2.14c0-.73-.75-3.89-2.11-9.44q-1.3-5.32.9-7.94c-1.54-5.81-2.7-11-3.53-15.52a12.91,12.91,0,0,1,.37-4.91,12.88,12.88,0,0,0,.45-4.36,4.57,4.57,0,0,0-1.31-2.08,7.43,7.43,0,0,1-1.44-1.92,26.82,26.82,0,0,1-1-8,20.83,20.83,0,0,0-1.34-8.07q1-1.4,1.43-5.33a13.3,13.3,0,0,1,1.44-5.4c.94-.45,2-.07,3.17,1.14,1.3,1.36,2.35,2.07,3.13,2.06s6.56-3.63,8.13-4.2c6.88-2.5-2-1.15,0,0,.86.49,10.75-3.06,12.51-1.17.57.62-3.62,1.57-3.62,2.75,0,.38,4.38-1.19,4.47-1.68.39-2.12,3.64-1,4.68-1.15.88-.1-5.31.33-3.77.57s10,0,10.53-.09a10.92,10.92,0,0,0,3.68-1.64c1.5-.91,2.89.16,3.41.11,0,0,21.5,3.5,20.75,6.5,0,0-10.75-3.52-9.41-3.18a18.7,18.7,0,0,0,3.94.21,11,11,0,0,1,3.64.32c.27.07.64.44,1.12,1.1a7.35,7.35,0,0,0,1.8,1.81A17.31,17.31,0,0,0,479,65a6,6,0,0,1,2.56,1.69,8.05,8.05,0,0,1,.77,1.76,6.84,6.84,0,0,0,.84,1.69,15.25,15.25,0,0,0,4,2.91A15.66,15.66,0,0,1,491,75.88C490.34,79,491,82.37,492.94,86ZM473.41,120a4.45,4.45,0,0,0,.74-2.23,7.78,7.78,0,0,0-.55-2.38,10.05,10.05,0,0,1-.63-2.5,7.33,7.33,0,0,1,.35-2.12,9.14,9.14,0,0,0,.42-2.13,10.81,10.81,0,0,0-.42-2.39,11.66,11.66,0,0,1-.43-2.52,12.93,12.93,0,0,1,.33-2.39,4.23,4.23,0,0,0,0-1.82,5,5,0,0,0-1.5-2.15,13.39,13.39,0,0,1-2-2.1,20.72,20.72,0,0,1-3.12-8.05c-5.74-6.13-11.85-8.68-18.19-7.64a7.15,7.15,0,0,0-2.09.78,9.65,9.65,0,0,1-2.08.85,84.68,84.68,0,0,1-8.84.67,26.32,26.32,0,0,0-8.39,1.49c-3,7-3.05,12.53-.22,16.48q-2.27,3.29-1.07,8.14c.18.65.65,2.09,1.32,4.29a40.17,40.17,0,0,1,1.16,4.65,29.93,29.93,0,0,1,.25,4,18.8,18.8,0,0,0,.46,4,14.14,14.14,0,0,0,.94,2.51,8.45,8.45,0,0,1,.84,2.26,14.63,14.63,0,0,1-.44,3.85,8.4,8.4,0,0,0-.15,3.47c1,4,3.34,6.44,6.95,7.26s6.7-.28,9.47-3.23c-.09,0,4.08.11,12.49.43,1.81-2.18,5.29-4.73,10.5-7.59a16.13,16.13,0,0,0,1.56-5.49,54.45,54.45,0,0,1,1.17-6.25A12.72,12.72,0,0,1,473.41,120Z"/><path class="cls-2" d="M594.78,150.32a16.36,16.36,0,0,1-7.52-1.93c-.32-1.3-.83-3.66-1.49-7-.6-3-1.12-5.4-1.59-7q-2.18-7.72-6.61-10.6a7.75,7.75,0,0,1-4.67-.7c-.35-.15-.9-.54-1.63-1s-1.31-.7-1.71-.9c.84.1-3.95.76-14.32,2.16a7.31,7.31,0,0,1-2.45-.12,13.48,13.48,0,0,0-2.23-.27,10.05,10.05,0,0,0-6.76,3.25,13.19,13.19,0,0,0-3.11,6.72,15.43,15.43,0,0,0,.23,3.88,8.21,8.21,0,0,1-.5,4.2,5.07,5.07,0,0,1-1.79,1.76,7.51,7.51,0,0,0-2.21,2.15,9.14,9.14,0,0,0-.8,3.09,5.39,5.39,0,0,1-.73,2.49c-.94,1.17-3.14,1.93-6.53,2.36s-5.69,1.1-6.53,1.88c-3.52-4.05-5.31-7-5.27-8.69,0-1.39.85-2.92,2.45-4.51,1.77-1.77,3-3.3,3.07-4.23a11.57,11.57,0,0,0-1.12-4.37,11.17,11.17,0,0,1-.91-4.45,10.17,10.17,0,0,0,5.13-5.49,41,41,0,0,0,2.41-8.15,57.31,57.31,0,0,1,2.21-8.29,11,11,0,0,1,5-5.67q-.75-5.51,2-12.38c1.87-4.62,2.57-8.75,2.07-12.38a19.94,19.94,0,0,1,2.41-2.37,7.14,7.14,0,0,0,2.32-3.26,12.44,12.44,0,0,0,.09-3.36,9.31,9.31,0,0,1,.24-3.37,10.22,10.22,0,0,1,2.5-3.48c1.33-1.32,2.1-2.34,2.21-3a6.61,6.61,0,0,0-.28-2.54,5.59,5.59,0,0,1-.28-2.54c.63-2.6,2.53-4.33,5.65-5.08a11.61,11.61,0,0,1,9.06,1.58A12.18,12.18,0,0,1,571,47.17c3.29.44,5.21,1.79,5.73,4a12.79,12.79,0,0,1,0,3.51,13.8,13.8,0,0,0,0,3.66,12.24,12.24,0,0,0,2.62,5.62,45.49,45.49,0,0,1,3.07,4.21c-1.64,4.42-.5,8.11,3.36,11.1-1.16,3.12-.37,6.37,2.32,9.75,3.3,4.13,5,7,5.18,8.61a7.51,7.51,0,0,1-.27,2.09,7.74,7.74,0,0,0-.27,2.16,8.72,8.72,0,0,0,2.57,3.71c1.45,1.43,2.31,2.62,2.48,3.57a7.74,7.74,0,0,1-.45,3.28,10.5,10.5,0,0,0-.59,3.05c.17,1.2,1.27,3.12,3.3,5.61,1.73,2.13,2.41,4.27,1.91,6.4,3,4.31,4.52,7.72,4.36,9.91a11.11,11.11,0,0,1-.67,2.52c-.42,1.18-.7,2-.81,2.52.05-.25.08,1.44.14,5,0,1.88-.51,3.17-1.65,3.84A51,51,0,0,0,594.78,150.32ZM551.35,96.94q-1.85,5.1-1.72,6.31c.35,4.56,3.64,6.76,9.87,6.65a25.35,25.35,0,0,0,14.25-4.23,17.56,17.56,0,0,1,.67-6.62,8,8,0,0,0-.11-5.3c-.46-1.07-2.56-1.29-1.46-3s-1.78-3-3-3.83c-.7-.46-2.34-2.71-2.31-6.57,0-3-1-5.26-2.86-6.73-3.93.09-6.85,2.21-8.79,6.23-2.76,5.75-4.53,9-5.2,9.54A8.57,8.57,0,0,1,551.35,96.94Z"/><path class="cls-3" d="M749.71,69.78c-1,3.87-1.19,6.71-.7,8.43a13.82,13.82,0,0,0,2,3.14,4.75,4.75,0,0,1,1.34,2.85,4.81,4.81,0,0,1-2.25,3.19,10.74,10.74,0,0,0-3,2.76c.66,2.45.61,5.66-.14,9.62-1.23,6.49-1.85,9.84-1.86,10a12.93,12.93,0,0,0,.3,2,6.78,6.78,0,0,1,.14,2,12.53,12.53,0,0,1-1.67,3.4,8.49,8.49,0,0,0-1.45,3.56,6.27,6.27,0,0,0,1,2.88,7.21,7.21,0,0,1,.95,3,5.42,5.42,0,0,1-.65,2.08A7.77,7.77,0,0,0,743,131a8.7,8.7,0,0,0,.35,2.75,7.91,7.91,0,0,1,.29,2.6,8,8,0,0,1-1.35,2.79,11.45,11.45,0,0,0-1.52,3,36.44,36.44,0,0,0-.88,5.27c-.24,2.58-.4,4.27-.55,5-.67,3.44-2.45,5.31-5.31,5.6.41-.05-2.17-1-7.76-2.75a7.29,7.29,0,0,0-1.92-.39c-1.1-.1-1.78-.21-2-.26a4.27,4.27,0,0,1-3.1-2.06,20.78,20.78,0,0,0,.73-6.78c-.11-3.67-.18-6.15-.06-7.28,0,.28,1.08-3.92,3.41-12.53,1.26-4.63.68-8.23-1.81-10.78-4.36,1.42-7.17,3.09-8.44,5a10.85,10.85,0,0,0-1.39,3.88,17.43,17.43,0,0,1-1.16,4,9.61,9.61,0,0,1-2.24,2.45,7.93,7.93,0,0,0-2.15,2.47,10.06,10.06,0,0,0-.55,3.45,9.53,9.53,0,0,1-.54,3.3c-.43,1-2.31,2.88-5.69,5.62-.94,4.2-2.85,6.71-5.65,7.56Q690,154,683,151.43c-4.09-1.5-6.46-2.69-7-3.62a4,4,0,0,1-.43-2.44,10.27,10.27,0,0,0,0-2.85,9.37,9.37,0,0,0-1.12-2.48,8.36,8.36,0,0,1-1.12-2.48,14.22,14.22,0,0,1,0-3.62,19.47,19.47,0,0,0,0-4.05,17.93,17.93,0,0,0-1.6-4.85,25.81,25.81,0,0,1-1.71-4.57c0-.43-.06-1.14,0-2.06a7.59,7.59,0,0,0-.11-2,12.24,12.24,0,0,0-2.91-4.48c-1.54-1.54-3-2.2-4.24-1.91s-2.25,2.76-3,7.25a65.44,65.44,0,0,0-1,10.68c0,1,.07,2.93.15,5.62s.09,4.56.05,6c-.12,4.56-1,7.93-2.66,10Q649.05,149,641,149c-2.44-1.59-3.67-3.52-3.61-5.72a4.87,4.87,0,0,1,1-2.31,8.45,8.45,0,0,0,1.3-2.45,12.82,12.82,0,0,0-.31-5.76,30.55,30.55,0,0,1-1-5.92,9.2,9.2,0,0,1,.79-2.74,8.45,8.45,0,0,0,.72-2.89,34.7,34.7,0,0,0-.72-5.56,26.68,26.68,0,0,1-.55-6.12c.06-1.16.23-4.44.5-9.71.21-4,.37-7.22.57-9.57a30.4,30.4,0,0,1,1-4.58,14.8,14.8,0,0,0,.63-4.24,27.17,27.17,0,0,0-.7-5c-.57-2.46-.88-3.93-1-4.36A6.64,6.64,0,0,1,642.89,65a6.79,6.79,0,0,1-.69-5.63c.18-.66.51-1.6,1-2.81s.84-2.69,1-2.81c.31-.23,4.36-.53,10-1.43a37.34,37.34,0,0,1,10.36-.56c2.9.42,4.85,1.86,5.71,4.25s.5,5-.86,8.06c1,.95,3.51,5.76,7.32,14.45a39,39,0,0,0,2.24,3.54,8.09,8.09,0,0,1,1.38,3.14,5.39,5.39,0,0,1-.37,2,4.68,4.68,0,0,0-.29,2,6.93,6.93,0,0,0,1.77,3.09,11.56,11.56,0,0,1,2.22,3.19,17.9,17.9,0,0,1,.68,3.74c.22,2.18.38,3.68.54,4.44a30.43,30.43,0,0,0,.87,3.11,26.24,26.24,0,0,1,.81,2.68,8.53,8.53,0,0,1-.75,5.93,14.48,14.48,0,0,0,2.32,3.13,5.1,5.1,0,0,0,3.92,1.33c.92-.06,2.32-1.15,4.06-3.21a20.06,20.06,0,0,0,3.2-4.75,10.45,10.45,0,0,0,.48-2.88,12.15,12.15,0,0,1,.39-2.75,9.75,9.75,0,0,1,1.45-2.32,14.39,14.39,0,0,0,1.62-2.3,21.35,21.35,0,0,0,1.42-3.6,18.08,18.08,0,0,1,1.49-3.45,12.67,12.67,0,0,1,1.76-1.93,6.72,6.72,0,0,0,1.71-2.22,26,26,0,0,0,1.51-6,22.93,22.93,0,0,1,1.38-5.45,17.2,17.2,0,0,1,3.1-4,13.7,13.7,0,0,0,2.57-3.28,16.22,16.22,0,0,0,.86-4.77c.14-1.93.43-3.12.91-3.56,1.93-.31,3.94-1.79,6-4.41,1.82-2.34,3.82-3.54,5.92-3.47a6.53,6.53,0,0,1,3.39,1.24,14.16,14.16,0,0,0,3.24,1.8,26.76,26.76,0,0,0,5.86,1.07,22.64,22.64,0,0,1,5.91,1.31C750.88,63,750.68,66,749.71,69.78Z"/><path class="cls-2" d="M841.22,159.34a17.87,17.87,0,0,1-5.15,1.34,7.28,7.28,0,0,1-2.08-.39,6.44,6.44,0,0,0-2.14-.4c-.31,0-1.74.35-4.27.94a14.12,14.12,0,0,1-5.43.29,10.5,10.5,0,0,1-2.14-.71,13.49,13.49,0,0,0-2.32-.8,24.31,24.31,0,0,0-4.35-.27,13.64,13.64,0,0,1-3.88-.38,6.52,6.52,0,0,1-2.29-1.83,12.33,12.33,0,0,0-2.48-2.24,18.46,18.46,0,0,0-3-1.53c-1.44-.59-2.32-.93-2.56-1.05a5.18,5.18,0,0,1-2.84-4.32l-4.25-.63c-.15-.15-2.23-2.42-6.31-6.76.29-1.49-.08-3.57-1.1-6.21a17.63,17.63,0,0,1-1.51-6.72,5.09,5.09,0,0,1,.41-1.59,4.07,4.07,0,0,0,.35-1.6,6.25,6.25,0,0,0-1.09-2.71A12.66,12.66,0,0,1,781.3,119a11.2,11.2,0,0,1-.18-4.17,26.31,26.31,0,0,0,.17-4.32,16.74,16.74,0,0,0-1.09-3.43,5.45,5.45,0,0,1-.3-3.39,5.89,5.89,0,0,1,1.77-2.27A6.66,6.66,0,0,0,783.51,99a6.14,6.14,0,0,0,.1-2.29,5,5,0,0,1,.14-2.15,9.48,9.48,0,0,1,2.6-3.27,14.26,14.26,0,0,0,2.78-3q-.76-3.46.8-5.48a17.46,17.46,0,0,1,1.8-1.66c.93-.78,1.61-1.4,2-1.83a17.46,17.46,0,0,0,1.9-2.3c.85-1.18,1.41-1.89,1.53-2.09a11.11,11.11,0,0,1,5-3.3,6,6,0,0,1,1.47-.12,9.27,9.27,0,0,0,1.69-.15,48.74,48.74,0,0,0,5.75-2.24,35.48,35.48,0,0,1,6.2-2.21c3.91-.84,11.12,0,21.56,2.81a28.23,28.23,0,0,0,3.9.63,19.58,19.58,0,0,1,3.81.76,37.74,37.74,0,0,1,9.95,6c.07.1,2.05,2.85,5.84,8.26.47.67,2.05,2.4,4.7,5.21q2.76,3,3,5a52.19,52.19,0,0,1-.52,7.55q-.41,4,2.43,5.91a12.89,12.89,0,0,0-1,6.39,27.11,27.11,0,0,1-.13,6.11,6.9,6.9,0,0,1-1.28,2.19,5.86,5.86,0,0,0-1.14,2.16,6.11,6.11,0,0,0,.23,2.45,6.68,6.68,0,0,1,.21,2.51c-.19,1.12-1.77,3.93-4.8,8.31-.41.67-1.29,2.09-2.57,4.26a27.61,27.61,0,0,1-2.42,3.62,6.39,6.39,0,0,1-2.08,1.37,17.51,17.51,0,0,0-2.61,1.39c-.32.25-1.39,1.38-3.21,3.41a6.57,6.57,0,0,1-3.88,2.28,30.9,30.9,0,0,1-1.41,3.44A7.33,7.33,0,0,0,841.22,159.34ZM830.9,81.77q-1.61-1.2-2.5-.82a40.33,40.33,0,0,1-5.25,1.57,41.17,41.17,0,0,0-5.74,1.78,57.92,57.92,0,0,0-5.8,5,32,32,0,0,1-4.74,3.3,13.61,13.61,0,0,0-3.44,2.52c-1.09,1.55-1.61,5.69-2.95,9.91a4.57,4.57,0,0,1-1.5,1.49,3.12,3.12,0,0,0-1.27,1.79c-.42-.54-.28,2.92.36,10.4a8.48,8.48,0,0,0,1,2.58,20.57,20.57,0,0,1,1.23,2.89c2.42,7.79,5,14.53,7.44,16.32,4.35,3.19,19.85,7.16,25.36,5.07,3.35-1.27,7.7-7.12,10.08-8.13-.11.6,1.89-1.5,6.09-6.26a9.48,9.48,0,0,1,2.59-7.73c-1.14-2-.87-5.19.78-9.55,1.72-4.56,2.23-8.9,1.14-10.14-1.7-1.93-5.17-5.51-6-10.85q-1.65-.84-6.7-5.48c-2.62-2.41-5.3-3.71-8-3.87C833.35,83.78,832.65,83.17,830.9,81.77Z"/><path class="cls-4" d="M967.09,152.25a11.76,11.76,0,0,0-2,3.81c-.15,1,.48,2.6,1.75,4.7,1.37,2.26,2.06,3.87,2.1,4.81a7.72,7.72,0,0,1-1.22,4.37q-2.23,3.66-2.43,4.14a41.56,41.56,0,0,0-1.84,6.71,43.3,43.3,0,0,1-1.33,4.88,3.92,3.92,0,0,1-3.28,2.64,28.23,28.23,0,0,1-7.64-.5,4,4,0,0,1-3.11-2.77,25.17,25.17,0,0,1-1.12-7.72,14.92,14.92,0,0,1,2.64-8.78,3.87,3.87,0,0,0,.64-3,9.68,9.68,0,0,1-.08-2.67c0-.22.13-.84.31-1.83a11.22,11.22,0,0,0,.18-1.87,10.1,10.1,0,0,0-2.64-7.28,13,13,0,0,0-7.13-3.76,11.41,11.41,0,0,0-2.41,0,9.06,9.06,0,0,1-2.6-.08,6,6,0,0,1-1.76-1q-.62-.45-1.12-.75a3.92,3.92,0,0,0-1.24-.47l-3.38-.7a6.67,6.67,0,0,1-2.46-1,4.19,4.19,0,0,0-2.47-.64q-1.37,0-3.46-.14a7,7,0,0,0-4.31.73c-1.89,1.21-2.86,3.64-3,7.23a70.13,70.13,0,0,1-.74,10,11.34,11.34,0,0,1-1.58,3,20,20,0,0,0-1.76,3c-.3.75-.65,1.73-1,2.91a24,24,0,0,1-.82,2.36,4,4,0,0,1-3,2.63,7.65,7.65,0,0,1-4.23-.92,22.6,22.6,0,0,0-3.12-1.22,4,4,0,0,1-2.84-2.84,14.48,14.48,0,0,1-.06-5.55c.15-1,.88-3.73,2.24-8.26a3.06,3.06,0,0,0,0-1.44,5.34,5.34,0,0,1-.1-1.59c.08-.48.44-1.68.92-3.52a32.75,32.75,0,0,0,.76-4c.25-1.94,1.2-5.19,1.64-9.77.46-4.81,1.46-7.36,1.57-9.85a14.2,14.2,0,0,1,1.71-5.31,40,40,0,0,0,2-4.4,18.66,18.66,0,0,0,.42-3.76,18.88,18.88,0,0,1,.53-3.94,13.48,13.48,0,0,1,.95-2.14,7.26,7.26,0,0,0,.71-2,6.14,6.14,0,0,0-.27-2.22,8.21,8.21,0,0,1-.29-2.42,21,21,0,0,1,1.42-4.92,21.65,21.65,0,0,0,1-3.21,4,4,0,0,1,2-2.68c.63-.36,1.4-.82,2.31-1.37a8.26,8.26,0,0,1,4.72-1.48,6.83,6.83,0,0,1,2.26.78,19.08,19.08,0,0,0,2.54,1.11,34.54,34.54,0,0,0,7.9.89A49.28,49.28,0,0,1,939,90a11.67,11.67,0,0,1,2.61,1.11,20.79,20.79,0,0,0,2.82,1.37,44.41,44.41,0,0,0,9.28,2c3.8.53,6.34,1.22,7.57,2.09a6.92,6.92,0,0,1,1.78,2.33,7.67,7.67,0,0,0,1.82,2.42,17.47,17.47,0,0,0,4.71,1.9,13.78,13.78,0,0,1,4.06,1.67c.84.65,1.67,2.18,2.5,4.43a7.79,7.79,0,0,0,1.59,2.75,3.88,3.88,0,0,1,1.11,2.41,6.19,6.19,0,0,0,1.06,2.85,11.56,11.56,0,0,1,1.95,4.17,9.92,9.92,0,0,1-1.1,4.47,48,48,0,0,0-2.07,4.91,8.49,8.49,0,0,0-.11,2,4.58,4.58,0,0,1-.17,1.75,13.07,13.07,0,0,1-5.37,6.07,12.33,12.33,0,0,1-3,1A4,4,0,0,0,967.7,143a2.76,2.76,0,0,0,.16,2.77q.26.5.45.91a4,4,0,0,1,0,3.41A16.6,16.6,0,0,1,967.09,152.25Zm-6.45-38.72a26.86,26.86,0,0,1-3.82-.95,36.29,36.29,0,0,1-3.58-1.88,10.8,10.8,0,0,0-3.08-1.27,11.42,11.42,0,0,0-3.76.41,9.63,9.63,0,0,1-3.89.31,9,9,0,0,1-3.34-1.85,11.81,11.81,0,0,0-3.14-2,9.24,9.24,0,0,0-2.85-.25,9.94,9.94,0,0,1-2.62-.18,7.83,7.83,0,0,1-2.62-1.87,3.73,3.73,0,0,0-2.7-1.19,1.27,1.27,0,0,0-1.06.36,1.62,1.62,0,0,1-1,.45,42.88,42.88,0,0,1-2.64,9.82,71.76,71.76,0,0,0-2.5,7.67,4,4,0,0,0,.72,3.44c2.49,3.22,4.74,5.18,6.73,5.76,1.7.5,5,.78,9.77,1,4.35.17,7.47.73,9.31,1.63a10.07,10.07,0,0,1,2.56,2.45,5.53,5.53,0,0,0,2.66,2c.66.13,1.87-2.72,3.08-3.26,1.67-.74.37-.87.83-1,.8-.2,1.52-1.43,3.67-1.67.65-.07-.16-.9.33-1,1-.2,1.43,1,2,.17,2.09-2.94-1.66-4-1.33-7.33.42-4.27.83-.5,0-3C957.8,119.93,962.16,113.82,960.64,113.53Z"/><path class="cls-5" d="M583.64,202.76q1.07,2.83,1.11,3.06a8.92,8.92,0,0,1,0,1.78,11.85,11.85,0,0,0,0,2,3,3,0,0,0,.23.76,1.9,1.9,0,0,1,.16.81,6.39,6.39,0,0,1-1.16,2.12,6.7,6.7,0,0,0-1.18,2.18,3.4,3.4,0,0,0,.22,1.22,2.52,2.52,0,0,1,.15,1.22q.07-.28-1.48,1.29a2.65,2.65,0,0,0-.38.68,3.35,3.35,0,0,1-.43.76,4.43,4.43,0,0,1-.78.61,4.66,4.66,0,0,0-.83.68,6.45,6.45,0,0,0-.55.81,5.3,5.3,0,0,1-.52.76,1.46,1.46,0,0,1-.52.3,2.57,2.57,0,0,0-.57.28,6.43,6.43,0,0,0-.71.74c-.37.42-.62.68-.73.79a3.14,3.14,0,0,1-1.88,1.07,3.79,3.79,0,0,1-1.43-.3,6.31,6.31,0,0,0-1.76-.43c-.31,0-1.73.11-4.25.33l-1.45.11a2.27,2.27,0,0,1-1.22-.52q-1.78.81-5.31-.37a10.25,10.25,0,0,0-.56-1.8,9.83,9.83,0,0,1-.54-1.92,3.09,3.09,0,0,1,0-.84,4.69,4.69,0,0,0,.06-.89,3,3,0,0,0-.2-.81,3.31,3.31,0,0,1-.22-.78,2.52,2.52,0,0,1,.11-.66,5.11,5.11,0,0,0,.16-.76c0-.27-.08-1.44-.28-3.5a3.55,3.55,0,0,1,.61-2.83c-.25-2.16-.4-4.09-.47-5.76a5.38,5.38,0,0,1,.31-1.76,5.34,5.34,0,0,0,.32-1.55,1.79,1.79,0,0,0-.32-.81A2.83,2.83,0,0,1,557,200a11.34,11.34,0,0,1,0-2.95,8.85,8.85,0,0,0-.09-3,5.13,5.13,0,0,0,.65-1.86,5.42,5.42,0,0,1,.65-1.89c.3-.12.62.06.92.55s.64.85.88.88.58-.16,1-.57a2.5,2.5,0,0,1,.94-.75,3.44,3.44,0,0,1,1.6.34,6.47,6.47,0,0,0,1.84.49,7,7,0,0,0,1.4-.21,7.93,7.93,0,0,1,1.47-.24,4.06,4.06,0,0,1,1.11.22,3.52,3.52,0,0,0,.94.2,3,3,0,0,0,1.18-.46,2.76,2.76,0,0,1,1-.41,2.71,2.71,0,0,1,1.64.86,7.5,7.5,0,0,0,1.78,1.3,4.81,4.81,0,0,0,1.21.21,2.93,2.93,0,0,1,1.11.23c.08,0,.18.18.31.43a2.58,2.58,0,0,0,.5.71,5.23,5.23,0,0,0,.89.61,2,2,0,0,1,.74.69,3.3,3.3,0,0,1,.19.66,2.66,2.66,0,0,0,.21.64,5,5,0,0,0,1.14,1.17,5.18,5.18,0,0,1,1.14,1.15A6,6,0,0,0,583.64,202.76Zm-5.9,10.59a1.74,1.74,0,0,0,.34-.81,3.17,3.17,0,0,0-.11-.92,4.09,4.09,0,0,1-.14-1,2.9,2.9,0,0,1,.19-.79,3.62,3.62,0,0,0,.22-.79,4.51,4.51,0,0,0-.07-.91,4.68,4.68,0,0,1-.07-1,5.22,5.22,0,0,1,.2-.89,1.73,1.73,0,0,0,.08-.68,2,2,0,0,0-.45-.87,5.07,5.07,0,0,1-.62-.86,8.35,8.35,0,0,1-.8-3.15c-1.76-2.52-3.76-3.73-6-3.6a2.28,2.28,0,0,0-.75.21,3.1,3.1,0,0,1-.74.23,25.21,25.21,0,0,1-3.05-.13,8.4,8.4,0,0,0-2.93.18q-2,3.75-.77,6.18a3.89,3.89,0,0,0-.72,3c0,.25.13.82.28,1.67a16.58,16.58,0,0,1,.21,1.8,12.1,12.1,0,0,1-.08,1.5,7.58,7.58,0,0,0,0,1.52,5.71,5.71,0,0,0,.22,1,3.42,3.42,0,0,1,.2.89,5.8,5.8,0,0,1-.32,1.43A3.43,3.43,0,0,0,564,221a3.21,3.21,0,0,0,3.49-.79l4.41.69a13.65,13.65,0,0,1,4-2.44,6.3,6.3,0,0,0,.74-2,21.71,21.71,0,0,1,.63-2.31A4.82,4.82,0,0,1,577.74,213.35Z"/><path class="cls-6" d="M615.62,195.43c-.25,1-.37,1.49-.39,1.54a3,3,0,0,1-1.68,2,4.15,4.15,0,0,1-2,.07,10.72,10.72,0,0,0-2.28-.19,2.34,2.34,0,0,0-.9.41,2.38,2.38,0,0,1-.9.41,3.17,3.17,0,0,1-1.7-.32c-1-.44-1.48-.64-1.4-.62a15.21,15.21,0,0,1-3.92,0c-1.79-.16-3.78,0-4.17.46-.69.83-.4,3.12.19,3.89q-.35,3.14.33,3.92a28.7,28.7,0,0,1,6,.27,3.48,3.48,0,0,1,.59.19,1.61,1.61,0,0,0,.62.12,5.48,5.48,0,0,0,1.59-.52,3.44,3.44,0,0,1,1.56-.42,2.1,2.1,0,0,1,.73.3,3.05,3.05,0,0,0,.73.33c.28.06,1.78.15,4.49.28a3.9,3.9,0,0,1,.38,3.36c-.38,1.22-1.1,1.85-2,1.79a1.7,1.7,0,0,1-.91-.46,1.78,1.78,0,0,0-.82-.48,1.55,1.55,0,0,0-.89.43,2.64,2.64,0,0,1-.9.54,7,7,0,0,1-2.66-.25,16.18,16.18,0,0,0-2.61-.44,2.87,2.87,0,0,0-1,.26,3,3,0,0,1-.93.26,2.72,2.72,0,0,1-1-.22,3,3,0,0,0-.92-.25c.08,0-2.23.24-2.85,1-1.23,1.43-.47,6.9.48,9.1a2.27,2.27,0,0,0,1.51.15,14.81,14.81,0,0,1,1.59-.22,6.77,6.77,0,0,1,1.64.36,4.94,4.94,0,0,0,1.69.29,2.74,2.74,0,0,0,.67-.21,3.65,3.65,0,0,1,.69-.21,4.94,4.94,0,0,1,1.22.08,12.79,12.79,0,0,0,1.32.13q.8,0,2.41-.06c1.07-.05,1.86-.07,2.36-.06q2.64.08,3.65,1.54a7.27,7.27,0,0,1-.81,3.43,3.47,3.47,0,0,0-1.8.4,4.24,4.24,0,0,1-1.69.51,2.71,2.71,0,0,1-1.46-.68,3.07,3.07,0,0,0-1.32-.7,1.93,1.93,0,0,0-1,.3,2.49,2.49,0,0,1-.93.36,1.89,1.89,0,0,1-.93-.35,2.15,2.15,0,0,0-.91-.4,1.61,1.61,0,0,0-.83.29,2.71,2.71,0,0,1-.81.39,11.05,11.05,0,0,1-2-.17,2.48,2.48,0,0,0-2,.39,14.47,14.47,0,0,0-4-.65,9.64,9.64,0,0,0-1.32.21,8.39,8.39,0,0,1-1.22.19,2.29,2.29,0,0,1-2.12-1.19c-.66-1-1-3-.86-5.5a4.59,4.59,0,0,1,.2-.91,5.39,5.39,0,0,0,.23-1,12.84,12.84,0,0,0-.19-2.87,16.08,16.08,0,0,1-.25-2.34,3,3,0,0,1,.25-.84,4.51,4.51,0,0,0,.3-1,9.4,9.4,0,0,0-.09-2.29,9,9,0,0,1-.11-2.06,2.7,2.7,0,0,1,.35-.81,3,3,0,0,0,.35-.78,12.58,12.58,0,0,0,.19-3,9.49,9.49,0,0,0-.4-2,7.27,7.27,0,0,1-.36-1.91,6.38,6.38,0,0,1,.26-1.47,10.43,10.43,0,0,0,.33-1.55,7,7,0,0,0,0-1c0-.59-.06-.95-.06-1.07a3,3,0,0,1,.54-2,5.48,5.48,0,0,1,3.49-.26c2.11.42,3.25.66,3.37.66a11.32,11.32,0,0,0,1.5-.1l1.53-.17a4.07,4.07,0,0,1,2.89.67c3.44-.7,5.78-.93,7-.69a2.76,2.76,0,0,1,.88.46,2.88,2.88,0,0,0,.88.46l2.21-.11a1.45,1.45,0,0,1,1.61,1A12.27,12.27,0,0,0,615.62,195.43Z"/><path class="cls-7" d="M662.91,201.23c.52,0-1.89,1.24-7.15,3.76a1.52,1.52,0,0,0,0,.77,1.75,1.75,0,0,1,.06.77,3,3,0,0,1-1,1,3.5,3.5,0,0,0-1,.91,5.08,5.08,0,0,1-.7,2.55,2.67,2.67,0,0,1,.23,2.22c-.4,1.55-.6,2.33-.6,2.31a3.61,3.61,0,0,0,.5,2.12l.57.88c.24.37.43.68.56.93q-.81,2.49,1.1,2.63c1.26,1.88,1.84,2.77,1.76,2.68s1.55.09,4.93.22q2.8.11,3.55-1.7a10.37,10.37,0,0,0,1.19-.14,7.15,7.15,0,0,0,1.39-2.11,8.86,8.86,0,0,1,1.35-2.16,10.33,10.33,0,0,0,1-.28,7.89,7.89,0,0,1,1.07-.28,2.41,2.41,0,0,1,2.11.4,2.94,2.94,0,0,1,.67,1.83,5.27,5.27,0,0,1-.22,2.56,1.35,1.35,0,0,1-.55.57,3.59,3.59,0,0,0-.78.64,6.7,6.7,0,0,0-.66,1.38,5.06,5.06,0,0,1-.73,1.37,1.27,1.27,0,0,1-.47.27,2,2,0,0,0-.51.29,4,4,0,0,0-.45.53c-.19.25-.32.41-.4.49a2,2,0,0,1-1.15.39c-.1,0-.32.3-.56.65a1.68,1.68,0,0,1-.63.61,2.14,2.14,0,0,1-1.17,0,4.47,4.47,0,0,0-1.3-.06,2.12,2.12,0,0,0-.89.48,2.9,2.9,0,0,1-.9.53,7.64,7.64,0,0,1-1.54.15,1.86,1.86,0,0,0-1.23.37l-1.46-.86a1.88,1.88,0,0,0-.89.13,1.44,1.44,0,0,1-.79.09,1.85,1.85,0,0,1-.84-.71,4.08,4.08,0,0,0-.77-.85,3.33,3.33,0,0,0-1-.34,5.23,5.23,0,0,1-1-.29,8,8,0,0,1-1.29-1.11,2.24,2.24,0,0,0-1.34-.71A10.42,10.42,0,0,0,650,225a8.6,8.6,0,0,1-.63-2.44c0-.16-.5-.43-1-.65a2,2,0,0,1-1-.67,7,7,0,0,1,.4-1.44,5.29,5.29,0,0,0,.33-1.68,11.88,11.88,0,0,0-.57-3.1,9.14,9.14,0,0,1-.48-2.83s.14-.63.42-1.92a2.57,2.57,0,0,0-.14-1.8,1.23,1.23,0,0,1,.92-.67,2.13,2.13,0,0,0,1-.5,2.52,2.52,0,0,1,.35-1.7,6.25,6.25,0,0,0,.65-1.52,2.57,2.57,0,0,0-.11-1,1.86,1.86,0,0,1-.07-.88,1.12,1.12,0,0,1,.61-.68,4.58,4.58,0,0,0,1-.68,5.78,5.78,0,0,0,.46-.62,4.53,4.53,0,0,1,.45-.59c.36-.46,1.13-.65,1.28-.78s.4-1.23.73-1.71a20.57,20.57,0,0,0,2.88-.93c1.19-.89,1.73-1.34,1.62-1.35a1.24,1.24,0,0,1,.81.55,3.46,3.46,0,0,0,.74.75,10.1,10.1,0,0,0,4.85.41,3.87,3.87,0,0,0,.73-.22,2,2,0,0,1,.78-.16,2.1,2.1,0,0,1,.65.28,2.76,2.76,0,0,0,.74.32,3,3,0,0,0,.63,0,2.1,2.1,0,0,1,.56,0,5.88,5.88,0,0,1,1.15.91,1.51,1.51,0,0,0,1.3.52,39.61,39.61,0,0,1,2.67,3c0-.12.34,1,1.08,3.31a5.22,5.22,0,0,1-.15,3.74,2.17,2.17,0,0,1-1,.67,2.6,2.6,0,0,1-1.21.18,4.49,4.49,0,0,1-1.34-.53,3.91,3.91,0,0,1-1.11-.76,1.6,1.6,0,0,1-.25-.88,3.6,3.6,0,0,0-.16-1,2.6,2.6,0,0,0-.95-1.12,4.9,4.9,0,0,0-.59-.35c-.29-.15-.51-.24-.62-.31C667.78,202.3,666,201.28,662.91,201.23Z"/><path class="cls-7" d="M703.56,233.86a5.06,5.06,0,0,1-2.41-.75c-.08-.45-.21-1.25-.38-2.41s-.28-1.85-.4-2.41a6.1,6.1,0,0,0-1.95-3.69,2.34,2.34,0,0,1-1.48-.31c-.11-.06-.28-.19-.5-.35s-.41-.26-.53-.33a32.8,32.8,0,0,1-4.62.49,2.26,2.26,0,0,1-.78-.09,4.15,4.15,0,0,0-.71-.14,3.18,3.18,0,0,0-2.23,1,4.63,4.63,0,0,0-1.15,2.21,5.5,5.5,0,0,0,0,1.32,2.93,2.93,0,0,1-.26,1.41,1.7,1.7,0,0,1-.62.56,2.5,2.5,0,0,0-.76.68,3.22,3.22,0,0,0-.33,1,1.9,1.9,0,0,1-.3.83,3.24,3.24,0,0,1-2.17.65,4.35,4.35,0,0,0-2.16.48c-1-1.46-1.54-2.49-1.48-3.08a2.42,2.42,0,0,1,.91-1.46,3.4,3.4,0,0,0,1.1-1.36,4.1,4.1,0,0,0-.25-1.51,4,4,0,0,1-.17-1.53,3.36,3.36,0,0,0,1.78-1.74,14.53,14.53,0,0,0,1-2.71,20.91,20.91,0,0,1,.91-2.76A3.66,3.66,0,0,1,685.3,216a8.88,8.88,0,0,1,.93-4.16,8.89,8.89,0,0,0,.93-4.15A6.57,6.57,0,0,1,688,207a2.43,2.43,0,0,0,.8-1.06,4.56,4.56,0,0,0,.1-1.14,3.43,3.43,0,0,1,.15-1.14,3.5,3.5,0,0,1,.85-1.13,2.48,2.48,0,0,0,.75-1,2.45,2.45,0,0,0,0-.87,2.06,2.06,0,0,1,0-.87,2.23,2.23,0,0,1,1.85-1.62,3.32,3.32,0,0,1,2.76.69,3.5,3.5,0,0,1,2.52-.36c1,.2,1.58.68,1.7,1.44a4.83,4.83,0,0,1-.07,1.19,5.12,5.12,0,0,0-.07,1.24,4.29,4.29,0,0,0,.71,1.95,15.55,15.55,0,0,1,.88,1.47,3.18,3.18,0,0,0,.87,3.81,3.47,3.47,0,0,0,.57,3.34,8,8,0,0,1,1.5,3,2.71,2.71,0,0,1-.11.71,2.81,2.81,0,0,0-.12.73,2.94,2.94,0,0,0,.76,1.29,2.71,2.71,0,0,1,.74,1.24,2.81,2.81,0,0,1-.19,1.11,3.77,3.77,0,0,0-.23,1,4.85,4.85,0,0,0,1,1.94,2.59,2.59,0,0,1,.53,2.19,6.56,6.56,0,0,1,1.28,3.41,4,4,0,0,1-.25.85c-.15.4-.25.68-.29.84,0-.08,0,.49,0,1.71a1.39,1.39,0,0,1-.58,1.29A16.5,16.5,0,0,0,703.56,233.86Zm-11.82-19.29a5.29,5.29,0,0,0-.45,1.43q0,1.58,2,1.65a5.14,5.14,0,0,0,3.11-.81,4.36,4.36,0,0,1,.23-1.51,2,2,0,0,0,0-1.22,1.74,1.74,0,0,0-.65-.77,1.65,1.65,0,0,1-.63-.74,7.48,7.48,0,0,1,0-1.63,1.9,1.9,0,0,0-.52-1.58,2.08,2.08,0,0,0-1.95,1.33,12.49,12.49,0,0,1-1.24,2.13A2.1,2.1,0,0,1,691.74,214.58Z"/><path class="cls-7" d="M721.78,199.06c0,.09,0,.69,0,1.78A4.29,4.29,0,0,0,722,202a7,7,0,0,1,.26,1.21,19.46,19.46,0,0,1-.48,3.94c-.06.35-.18.87-.36,1.51s-.29,1-.33,1.28a2,2,0,0,0,.87,2c0,.36,0,1.07,0,2.14s0,1.67,0,2.21a7.2,7.2,0,0,1-1,3.82,6.7,6.7,0,0,1-.56,3.2,6.06,6.06,0,0,1,.33,4.41,7.24,7.24,0,0,0,6,1.33,9.72,9.72,0,0,0,1.47-.49,3,3,0,0,1,1.44-.26,6.36,6.36,0,0,1,1.81.71,5.7,5.7,0,0,0,1.81.66,7.28,7.28,0,0,0,1.55-.19,2.2,2.2,0,0,1,1.58.22,3.49,3.49,0,0,1,.08,2.6,8.57,8.57,0,0,1-1.17,2q-3.37,1-4.63-.1a2.33,2.33,0,0,1-2.11.17,14.41,14.41,0,0,0-2.24-.55,4.52,4.52,0,0,0-1,.13c-.55.13-.89.19-1,.21a1.73,1.73,0,0,1-1.78-.67,1.06,1.06,0,0,0-.74.14,1.27,1.27,0,0,1-.65.22,11.57,11.57,0,0,0-3.64-.36c-1.63,0-3.09-.24-3.39-.65a5.22,5.22,0,0,1-.23-2.45c0-.19,0-.62.1-1.27s0-1,.06-1.29a5.94,5.94,0,0,0-.12-1.15c-.12-.63-.18-1-.19-1.13a2.42,2.42,0,0,1,.64-2.11c0-.12,0-.35-.09-.67s-.06-.54-.06-.69a1.88,1.88,0,0,1,.27-1.26,9.21,9.21,0,0,1-.47-5.3,8.33,8.33,0,0,0,0-2.26,10.88,10.88,0,0,1-.08-2.14,3.17,3.17,0,0,1,.22-.73,4.2,4.2,0,0,0,.25-.73c0-.2.11-1.49.21-3.85a4.57,4.57,0,0,1,.92-3,3.45,3.45,0,0,1-.56-2.82,2.27,2.27,0,0,1,1.73-2,2.75,2.75,0,0,1,1.24.08,4.52,4.52,0,0,0,1.28.18,3.26,3.26,0,0,0,.94-.42.94.94,0,0,1,.9-.09A1.67,1.67,0,0,1,721.78,199.06Z"/><path class="cls-7" d="M767.34,238.17a5.1,5.1,0,0,1-2.4-.81c-.07-.45-.18-1.26-.32-2.42s-.23-1.85-.34-2.42a6.1,6.1,0,0,0-1.86-3.74,2.35,2.35,0,0,1-1.48-.35c-.11-.06-.27-.2-.5-.37s-.4-.27-.52-.35a32.51,32.51,0,0,1-4.64.36,2.22,2.22,0,0,1-.78-.11,4.24,4.24,0,0,0-.7-.15,3.19,3.19,0,0,0-2.27.91,4.62,4.62,0,0,0-1.21,2.18,5.47,5.47,0,0,0,0,1.32,2.92,2.92,0,0,1-.29,1.41,1.69,1.69,0,0,1-.63.54,2.52,2.52,0,0,0-.78.66,3.22,3.22,0,0,0-.36,1,1.9,1.9,0,0,1-.32.82,3.26,3.26,0,0,1-2.2.59,4.37,4.37,0,0,0-2.18.42c-1-1.49-1.48-2.53-1.4-3.12a2.42,2.42,0,0,1,1-1.44,3.39,3.39,0,0,0,1.14-1.33,4.1,4.1,0,0,0-.21-1.52,4,4,0,0,1-.14-1.53,3.37,3.37,0,0,0,1.83-1.69,14.49,14.49,0,0,0,1-2.68,20.9,20.9,0,0,1,1-2.74,3.67,3.67,0,0,1,1.78-1.76,8.86,8.86,0,0,1,1-4.13,8.87,8.87,0,0,0,1-4.13,6.76,6.76,0,0,1,.83-.73,2.43,2.43,0,0,0,.83-1,4.55,4.55,0,0,0,.13-1.14,3.43,3.43,0,0,1,.18-1.13,3.51,3.51,0,0,1,.88-1.11,2.48,2.48,0,0,0,.78-1,2.44,2.44,0,0,0,0-.87,2.06,2.06,0,0,1,0-.87,2.24,2.24,0,0,1,1.9-1.57,3.34,3.34,0,0,1,2.75.76,3.52,3.52,0,0,1,2.54-.29c1,.23,1.56.73,1.66,1.48a4.81,4.81,0,0,1-.1,1.19,5.12,5.12,0,0,0-.1,1.24,4.29,4.29,0,0,0,.67,2,15.34,15.34,0,0,1,.85,1.5,3.17,3.17,0,0,0,.77,3.83,3.47,3.47,0,0,0,.49,3.35,8,8,0,0,1,1.43,3,2.71,2.71,0,0,1-.13.7,2.81,2.81,0,0,0-.14.73,3,3,0,0,0,.73,1.31,2.71,2.71,0,0,1,.71,1.26,2.79,2.79,0,0,1-.22,1.1,3.74,3.74,0,0,0-.26,1,4.86,4.86,0,0,0,.93,2,2.58,2.58,0,0,1,.47,2.21,6.55,6.55,0,0,1,1.19,3.44,4,4,0,0,1-.27.84c-.16.39-.27.68-.31.84,0-.08,0,.49-.06,1.7a1.39,1.39,0,0,1-.61,1.27A16.6,16.6,0,0,0,767.34,238.17ZM756,218.58a5.27,5.27,0,0,0-.49,1.42q0,1.58,2,1.7a5.17,5.17,0,0,0,3.14-.73,4.35,4.35,0,0,1,.27-1.51,2,2,0,0,0,.07-1.22,1.74,1.74,0,0,0-.64-.79,1.66,1.66,0,0,1-.62-.76,7.45,7.45,0,0,1,.06-1.63,1.89,1.89,0,0,0-.48-1.59,2.08,2.08,0,0,0-2,1.28,12.57,12.57,0,0,1-1.3,2.09A2.1,2.1,0,0,1,756,218.58Z"/><path class="cls-7" d="M804.84,225.25a5,5,0,0,0-.41,1.65,3.39,3.39,0,0,0,1,1.66,4.93,4.93,0,0,1,1.14,1.67,3.3,3.3,0,0,1-.09,1.8q-.51,1.62-.54,1.82a17.61,17.61,0,0,0-.13,2.77,14.22,14.22,0,0,1-.23,2.94,9.07,9.07,0,0,1-4.57.91,10.39,10.39,0,0,1-1.5-3.72,6.06,6.06,0,0,1,.58-4.24,3.8,3.8,0,0,1-.53-1.63c0-.08,0-.34,0-.74a4.74,4.74,0,0,0-.08-.74,4,4,0,0,0-1.51-2.6,4.53,4.53,0,0,0-2.86-.86,4,4,0,0,0-.87.19,3.08,3.08,0,0,1-.94.18,2,2,0,0,1-.71-.24,3,3,0,0,0-.8-.29s-.44,0-1.41,0a1.93,1.93,0,0,1-1.32-.42,7.33,7.33,0,0,1-1.84.4,2.51,2.51,0,0,0-1.52.62,3.55,3.55,0,0,0-.59,3.05,30.16,30.16,0,0,1,.42,4,4.74,4.74,0,0,1-.37,1.31,8.44,8.44,0,0,0-.44,1.3c-.06.32-.12.72-.17,1.21s-.1.82-.14,1a1.58,1.58,0,0,1-.93,1.26,2.72,2.72,0,0,1-1.63,0,5.65,5.65,0,0,0-1.91-.25,4.43,4.43,0,0,1-1-3.06c0-.38.08-1.52.28-3.4a1.28,1.28,0,0,0-.1-.56,2.21,2.21,0,0,1-.14-.61c0-.19,0-.69.1-1.44a13.94,13.94,0,0,0,0-1.63c0-.78,0-2.11,0-3.94s0-3.15-.06-4a7.63,7.63,0,0,1,.28-2.2,17.21,17.21,0,0,0,.43-1.87,8.12,8.12,0,0,0-.09-1.5,8.19,8.19,0,0,1-.06-1.58,5.82,5.82,0,0,1,.2-.91,3.17,3.17,0,0,0,.13-.83,2.59,2.59,0,0,0-.23-.85,3.47,3.47,0,0,1-.26-.92,9.18,9.18,0,0,1,.2-2,6.62,6.62,0,0,0,.1-2.05,8.51,8.51,0,0,0,1.31-1.17,2.93,2.93,0,0,1,1.57-.93,2.24,2.24,0,0,1,.85.13,6.19,6.19,0,0,0,1,.24,10.92,10.92,0,0,0,2.84-.27,16.51,16.51,0,0,1,3.09-.37,3.76,3.76,0,0,1,1,.22,6.6,6.6,0,0,0,1.08.3,13.86,13.86,0,0,0,3.39,0,6.38,6.38,0,0,1,2.8.17,2.49,2.49,0,0,1,.79.75,2.74,2.74,0,0,0,.81.78A5.55,5.55,0,0,0,802,206a4.48,4.48,0,0,1,1.55.29,4,4,0,0,1,1.21,1.49c.4.7.85,1.08,1.3,1.14a2,2,0,0,0,.63,1.61,4.48,4.48,0,0,1,1,1.43,4.35,4.35,0,0,1,0,1.83c-.2,1.08-.34,1.8-.35,2.09a3.62,3.62,0,0,0,.12.8,2,2,0,0,1,.08.69,5.42,5.42,0,0,1-1.43,2.84,4.5,4.5,0,0,1-1,.65,1.55,1.55,0,0,0-.74.7,1.15,1.15,0,0,0,.28,1.06,3.36,3.36,0,0,1,.57.9A4.11,4.11,0,0,1,804.84,225.25Zm-6.8-13.8a7.51,7.51,0,0,1-1.21,0,10.06,10.06,0,0,1-1.2-.36,3.05,3.05,0,0,0-1-.2,3.37,3.37,0,0,0-1.11.4,2.8,2.8,0,0,1-1.16.38,2.55,2.55,0,0,1-1.12-.38,3.42,3.42,0,0,0-1.07-.45,2.64,2.64,0,0,0-.88.11,2.83,2.83,0,0,1-.81.12,2.27,2.27,0,0,1-.9-.45,1.07,1.07,0,0,0-.89-.21.39.39,0,0,0-.3.19.51.51,0,0,1-.28.22,16,16,0,0,1-.25,3.45,20.77,20.77,0,0,0-.34,3.39,5.4,5.4,0,0,0,2.83,1.9,14,14,0,0,0,3.05-.35,7.4,7.4,0,0,1,2.95-.11,3.06,3.06,0,0,1,.93.63,1.65,1.65,0,0,0,.94.48,1.59,1.59,0,0,0,.82-.42,10.77,10.77,0,0,1,.9-.67,12.85,12.85,0,0,1,1.31-.54,3.06,3.06,0,0,0,1-.51,7.31,7.31,0,0,0,.67-3.78,2.84,2.84,0,0,0-1.84-2.72A2.93,2.93,0,0,0,798,211.45Z"/><path class="cls-7" d="M826.25,212.48c.48,0-1.69,1.23-6.45,3.78a1.36,1.36,0,0,0,.07.71,1.59,1.59,0,0,1,.09.71,2.78,2.78,0,0,1-.88.93,3.22,3.22,0,0,0-.92.88,4.62,4.62,0,0,1-.53,2.38,2.44,2.44,0,0,1,.32,2c-.29,1.44-.45,2.16-.45,2.15a3.3,3.3,0,0,0,.57,1.93l.57.78c.24.33.43.6.57.83q-.63,2.32,1.15,2.36c1.25,1.67,1.84,2.46,1.75,2.38s1.44,0,4.57,0q2.6,0,3.21-1.72a9.65,9.65,0,0,0,1.09-.18,6.53,6.53,0,0,0,1.19-2,8.06,8.06,0,0,1,1.15-2,9.76,9.76,0,0,0,.93-.3,7.36,7.36,0,0,1,1-.3,2.25,2.25,0,0,1,2,.27,2.7,2.7,0,0,1,.71,1.65,4.8,4.8,0,0,1-.08,2.36,1.24,1.24,0,0,1-.49.55,3.29,3.29,0,0,0-.69.63,6.08,6.08,0,0,0-.54,1.29,4.59,4.59,0,0,1-.61,1.29,1.17,1.17,0,0,1-.42.27,1.82,1.82,0,0,0-.46.29,3.63,3.63,0,0,0-.39.51,5.45,5.45,0,0,1-.35.47,1.81,1.81,0,0,1-1,.41c-.1,0-.29.29-.49.62a1.55,1.55,0,0,1-.55.59,2,2,0,0,1-1.08.09,4.18,4.18,0,0,0-1.2,0,2,2,0,0,0-.8.48,2.69,2.69,0,0,1-.81.53,7.11,7.11,0,0,1-1.41.21,1.73,1.73,0,0,0-1.12.39l-1.39-.73a1.75,1.75,0,0,0-.82.16,1.35,1.35,0,0,1-.73.12,1.72,1.72,0,0,1-.81-.61,3.77,3.77,0,0,0-.76-.75,3.13,3.13,0,0,0-.92-.27,4.92,4.92,0,0,1-.95-.22,7.5,7.5,0,0,1-1.25-1,2.09,2.09,0,0,0-1.27-.59,9.6,9.6,0,0,0-1.07-1.84,7.88,7.88,0,0,1-.7-2.22,2.12,2.12,0,0,0-1-.55,1.86,1.86,0,0,1-1-.57,6.36,6.36,0,0,1,.3-1.34,4.78,4.78,0,0,0,.22-1.56,10.84,10.84,0,0,0-.67-2.82,8.38,8.38,0,0,1-.58-2.58s.1-.58.3-1.78a2.35,2.35,0,0,0-.22-1.65,1.13,1.13,0,0,1,.82-.66,2,2,0,0,0,.94-.51,2.31,2.31,0,0,1,.25-1.58,5.67,5.67,0,0,0,.53-1.42,2.34,2.34,0,0,0-.15-.87,1.7,1.7,0,0,1-.11-.8,1,1,0,0,1,.53-.65,4.19,4.19,0,0,0,.89-.67,5.22,5.22,0,0,0,.39-.59,4.1,4.1,0,0,1,.39-.56c.31-.43,1-.64,1.14-.78s.31-1.15.59-1.6a19,19,0,0,0,2.62-1c1.06-.87,1.54-1.31,1.43-1.31a1.15,1.15,0,0,1,.78.47,3.21,3.21,0,0,0,.72.65,9.45,9.45,0,0,0,4.51.16,3.68,3.68,0,0,0,.67-.24,1.92,1.92,0,0,1,.71-.18,2,2,0,0,1,.61.23,2.59,2.59,0,0,0,.7.26,2.89,2.89,0,0,0,.59,0,2,2,0,0,1,.52,0,5.55,5.55,0,0,1,1.11.78,1.41,1.41,0,0,0,1.23.42q-.06-.14,2.61,2.61c0-.11.37.89,1.15,3a4.77,4.77,0,0,1,0,3.45,2,2,0,0,1-.9.66,2.42,2.42,0,0,1-1.11.22,4.19,4.19,0,0,1-1.26-.42,3.66,3.66,0,0,1-1.07-.64,1.47,1.47,0,0,1-.27-.79,3.33,3.33,0,0,0-.2-.9,2.41,2.41,0,0,0-.93-1,4.55,4.55,0,0,0-.56-.3c-.28-.12-.49-.2-.59-.25C830.81,213.23,829.08,212.38,826.25,212.48Z"/><path class="cls-7" d="M866.91,241.92a5.15,5.15,0,0,1-2.46-.68c-.1-.44-.25-1.24-.45-2.4s-.34-1.84-.48-2.4a6.1,6.1,0,0,0-2.08-3.63,2.39,2.39,0,0,1-1.5-.26c-.11-.05-.29-.19-.52-.34s-.42-.25-.54-.32a33.31,33.31,0,0,1-4.64.62,2.3,2.3,0,0,1-.79-.06,4.09,4.09,0,0,0-.72-.11,3.21,3.21,0,0,0-2.22,1,4.6,4.6,0,0,0-1.09,2.25,5.4,5.4,0,0,0,0,1.32,2.9,2.9,0,0,1-.21,1.42,1.7,1.7,0,0,1-.6.57,2.51,2.51,0,0,0-.75.7,3.2,3.2,0,0,0-.3,1,1.89,1.89,0,0,1-.27.84,3.29,3.29,0,0,1-2.17.71,4.41,4.41,0,0,0-2.17.54c-1.09-1.43-1.63-2.45-1.58-3a2.42,2.42,0,0,1,.87-1.49,3.4,3.4,0,0,0,1.06-1.39,4.07,4.07,0,0,0-.29-1.5,4,4,0,0,1-.22-1.52,3.38,3.38,0,0,0,1.75-1.79,14.38,14.38,0,0,0,.9-2.74,20.59,20.59,0,0,1,.83-2.78,3.67,3.67,0,0,1,1.69-1.86,8.84,8.84,0,0,1,.81-4.18,8.81,8.81,0,0,0,.81-4.18,6.68,6.68,0,0,1,.79-.78,2.42,2.42,0,0,0,.77-1.08,4.55,4.55,0,0,0,.07-1.14,3.4,3.4,0,0,1,.12-1.14,3.52,3.52,0,0,1,.82-1.16,2.48,2.48,0,0,0,.72-1,2.42,2.42,0,0,0-.06-.86,2.05,2.05,0,0,1-.06-.87,2.25,2.25,0,0,1,1.82-1.67,3.38,3.38,0,0,1,2.8.61,3.56,3.56,0,0,1,2.53-.43c1,.17,1.61.64,1.75,1.39a4.69,4.69,0,0,1,0,1.19,5.06,5.06,0,0,0,0,1.24,4.28,4.28,0,0,0,.78,1.92,15.42,15.42,0,0,1,.94,1.44,3.16,3.16,0,0,0,1,3.79,3.45,3.45,0,0,0,.68,3.32A8,8,0,0,1,866.6,224a2.7,2.7,0,0,1-.09.71,2.76,2.76,0,0,0-.09.73,2.93,2.93,0,0,0,.81,1.27,2.72,2.72,0,0,1,.78,1.22,2.76,2.76,0,0,1-.16,1.12,3.8,3.8,0,0,0-.2,1,4.86,4.86,0,0,0,1,1.91,2.57,2.57,0,0,1,.6,2.18,6.53,6.53,0,0,1,1.39,3.37,3.9,3.9,0,0,1-.22.86c-.14.4-.23.69-.27.85,0-.08,0,.49,0,1.7a1.39,1.39,0,0,1-.54,1.31A16.65,16.65,0,0,0,866.91,241.92Zm-12.83-18.76a5.2,5.2,0,0,0-.41,1.44q.07,1.58,2.09,1.58a5.21,5.21,0,0,0,3.11-.9,4.31,4.31,0,0,1,.18-1.52,2,2,0,0,0,0-1.22,1.75,1.75,0,0,0-.69-.75,1.66,1.66,0,0,1-.66-.72,7.4,7.4,0,0,1,0-1.63,1.89,1.89,0,0,0-.57-1.56,2.09,2.09,0,0,0-1.92,1.39,12.48,12.48,0,0,1-1.18,2.16A2.09,2.09,0,0,1,854.08,223.16Zm7.57-31.31-1.13,1.93c0,.11-.14.28-.27.5l-.27.47a1.71,1.71,0,0,0-.24.73,1.08,1.08,0,0,0,.37.9,1.3,1.3,0,0,0,.81.15,3.72,3.72,0,0,0,.49,0c.2,0,.38,0,.52,0a1.9,1.9,0,0,1,1,.3l1.06-1.45q.64-.85,1.14-1.45a6.61,6.61,0,0,1,.62-.51,4.45,4.45,0,0,0,.57-.48,2.12,2.12,0,0,0,.42-1.79,3.58,3.58,0,0,0-1.83-1.11,3.68,3.68,0,0,0-2.28.09Q862.32,190.74,861.65,191.85Z"/></svg>