<svg xmlns="http://www.w3.org/2000/svg" xmlns:xlink="http://www.w3.org/1999/xlink" xmlns:fi="http://pattern.flaticon.com/" x="0" y="0" width="700" height="350" viewBox="0 0 700 350"><rect x="0px" y="0px" width="100%" height="100%" opacity="1" fill="#ffffff"/><defs><g transform="matrix(0.11718747764825821 0 0 0.11718747764825821 14 19)" id="L1_0"><path d="m342.382812 239.351562c-23.039062-35.941406-62.277343-57.402343-104.964843-57.402343s-81.925781 21.460937-104.960938 57.402343l-55.515625 86.605469c-9.210937 14.367188-13.460937 30.96875-12.292968 47.996094 1.167968 17.03125 7.648437 32.890625 18.738281 45.875 11.097656 12.972656 25.761719 21.839844 42.40625 25.644531 16.644531 3.804688 33.707031 2.179688 49.339843-4.691406l1.046876-.464844c39.335937-16.945312 84.285156-16.789062 123.519531.464844 10.121093 4.449219 20.84375 6.699219 31.664062 6.699219 5.882813 0 11.800781-.667969 17.664063-2.003907 16.644531-3.800781 31.308594-12.667968 42.410156-25.644531 11.09375-12.972656 17.578125-28.835937 18.75-45.871093 1.171875-17.035157-3.078125-33.632813-12.289062-48.007813zm0 0"/><path d="m91.894531 239.238281c16.515625-6.34375 29.0625-19.652343 35.328125-37.476562 5.964844-16.960938 5.476563-36.109375-1.378906-53.921875-6.859375-17.800782-19.335938-32.332032-35.132812-40.921875-16.59375-9.019531-34.824219-10.488281-51.3125-4.132813-33.171876 12.753906-48.394532 53.746094-33.929688 91.398438 11.554688 29.96875 38.503906 48.886718 65.75 48.886718 6.957031 0 13.933594-1.234374 20.675781-3.832031zm0 0"/><path d="m199.613281 171.386719c41.46875 0 75.207031-38.4375 75.207031-85.683594 0-47.257813-33.738281-85.703125-75.207031-85.703125-41.464843 0-75.199219 38.445312-75.199219 85.703125 0 47.246094 33.734376 85.683594 75.199219 85.683594zm0 0"/><path d="m329.496094 192.4375h.003906c6.378906 2.117188 12.886719 3.128906 19.367188 3.128906 30.242187 0 59.714843-22.011718 70.960937-55.839844 6.476563-19.472656 6.050781-40.0625-1.199219-57.972656-7.585937-18.75-21.644531-32.359375-39.589844-38.324218-17.949218-5.964844-37.359374-3.476563-54.660156 7-16.527344 10.007812-29.191406 26.246093-35.660156 45.71875-13.652344 41.078124 4.640625 84.273437 40.777344 96.289062zm0 0"/><path d="m487.875 182.4375-.011719-.011719c-28.597656-21.125-71.367187-11.96875-95.347656 20.421875-23.957031 32.40625-20.210937 75.972656 8.34375 97.113282 10.414063 7.714843 22.71875 11.402343 35.3125 11.402343 21.949219 0 44.785156-11.203125 60.050781-31.804687 23.953125-32.40625 20.210938-75.972656-8.347656-97.121094zm0 0"/></g><g transform="matrix(0.1171875 0 0 0.1171875 209.00000020027164 148)" id="L1_1"><path d="m281.668 438.487c2.27-15.358 9.277-29.579 20.348-40.462.167-.164.333-.328.498-.494 40.633-40.633 30.868-116.277-21.81-168.956-52.679-52.679-128.323-62.443-168.956-21.81-.181.181-.361.363-.541.546-10.866 11.072-25.083 18.067-40.428 20.344-17.263 2.562-33.875 10.56-47.072 23.996-31.523 32.096-31.623 84.115-.216 116.324 7.569 7.763 16.273 13.726 25.586 17.891 33.156 14.828 59.543 41.215 74.371 74.371 4.165 9.313 10.128 18.016 17.891 25.585 32.215 31.414 84.247 31.307 116.341-.23 13.44-13.206 21.435-29.831 23.988-47.105z" id="XMLID_441_"/><ellipse cx="320px" cy="67px" rx="71px" ry="56px" transform="matrix(0.707 -0.707 0.707 0.707 46.146 246.406)" id="XMLID_481_"/><ellipse cx="106px" cy="75px" rx="71px" ry="56px" transform="matrix(0.707 -0.707 0.707 0.707 -22.269 97.463)" id="XMLID_483_"/><ellipse cx="447px" cy="194px" rx="71px" ry="56px" transform="matrix(0.707 -0.707 0.707 0.707 -6.325 373.08)" id="XMLID_84_"/><ellipse cx="436px" cy="405px" rx="71px" ry="56px" transform="matrix(0.707 -0.707 0.707 0.707 -158.941 427.419)" id="XMLID_5_"/></g><g transform="matrix(0.1171875 0 0 0.1171875 150 13)" id="L1_2"><path d="m176.278 50.544c-5.145 1.842-126.152 46.183-137.829 139.596-1.29 10.316-2.604 22.446-3.995 35.288-3.709 34.229-7.913 73.025-13.287 93.314-2.96 11.174-5.944 20.174-8.83 28.877-6.62 19.963-12.337 37.204-12.337 66.214 0 25.876 10.197 50.398 28.715 69.049 18.641 18.777 43.306 29.118 69.452 29.118 54.129 0 98.166-44.037 98.166-98.167z" fill="#c97840"/><path d="m335.722 50.544c5.145 1.842 126.152 46.182 137.829 139.595 1.29 10.316 2.604 22.446 3.995 35.288 3.709 34.229 7.913 73.025 13.287 93.314 2.96 11.174 5.944 20.174 8.83 28.877 6.62 19.964 12.337 37.205 12.337 66.215 0 25.876-10.197 50.398-28.715 69.049-18.641 18.777-43.307 29.118-69.452 29.118-54.129 0-98.166-44.037-98.166-98.167z" fill="#ae632c"/><g><path d="m423.28 167.097c0-43.692-17.392-85.312-48.971-117.192-31.876-32.181-73.889-49.903-118.309-49.905l-10.667 223.999 10.667 197.874c12.238 12.515 29.109 19.795 47.248 19.794.113 0 .23 0 .343-.001 17.188-.087 33.593-6.572 46.195-18.259 12.603-11.688 20.303-27.56 21.683-44.692l1.749-27.909 32.034-78.085.108-.274c18.571-47.927 18.12-87.965 17.92-105.35z" fill="#ffa73c"/><path d="m255.995 0c-44.412 0-86.427 17.723-118.305 49.905-31.579 31.88-48.971 73.5-48.971 117.192-.2 17.385-.65 57.423 17.92 105.35l32.143 78.358 1.73 27.642.019.267c1.38 17.132 9.08 33.004 21.683 44.692s29.008 18.172 46.196 18.259c.114.001.227.001.342.001 18.137-.001 35.011-7.28 47.248-19.794v-421.872c-.002 0-.003 0-.005 0z" fill="#fdc661"/></g><path d="m158.474 195.665h30v30h-30z" fill="#351a0a"/><path d="m323.526 195.665h30v30h-30z" fill="#281408"/><g><path d="m268.146 300.722h-12.146l-13.173 35.642 13.173 58.303 32.624-20.013c11.988-7.193 19.324-20.149 19.324-34.13 0-21.982-17.82-39.802-39.802-39.802z" fill="#281408"/><path d="m243.854 300.722c-21.982 0-39.802 17.82-39.802 39.802 0 13.981 7.335 26.937 19.324 34.13l32.624 20.013v-93.944h-12.146z" fill="#412816"/></g></g></defs><g fi:class="KUsePattern"><pattern id="pattern_L1_0" width="350" height="350" patternUnits="userSpaceOnUse"><use xlink:href="#L1_0" x="-350" y="-350"/><use xlink:href="#L1_0" x="0" y="-350"/><use xlink:href="#L1_0" x="350" y="-350"/><use xlink:href="#L1_0" x="-350" y="0"/><use xlink:href="#L1_0" x="0" y="0"/><use xlink:href="#L1_0" x="350" y="0"/><use xlink:href="#L1_0" x="-350" y="350"/><use xlink:href="#L1_0" x="0" y="350"/><use xlink:href="#L1_0" x="350" y="350"/></pattern><rect x="0" y="0" width="100%" height="100%" fill="url(#pattern_L1_0)"/></g><g fi:class="KUsePattern"><pattern id="pattern_L1_1" width="350" height="350" patternUnits="userSpaceOnUse"><use xlink:href="#L1_1" x="-350" y="-350"/><use xlink:href="#L1_1" x="0" y="-350"/><use xlink:href="#L1_1" x="350" y="-350"/><use xlink:href="#L1_1" x="-350" y="0"/><use xlink:href="#L1_1" x="0" y="0"/><use xlink:href="#L1_1" x="350" y="0"/><use xlink:href="#L1_1" x="-350" y="350"/><use xlink:href="#L1_1" x="0" y="350"/><use xlink:href="#L1_1" x="350" y="350"/></pattern><rect x="0" y="0" width="100%" height="100%" fill="url(#pattern_L1_1)"/></g><g fi:class="KUsePattern"><pattern id="pattern_L1_2" width="350" height="350" patternUnits="userSpaceOnUse"><use xlink:href="#L1_2" x="-350" y="-350"/><use xlink:href="#L1_2" x="0" y="-350"/><use xlink:href="#L1_2" x="350" y="-350"/><use xlink:href="#L1_2" x="-350" y="0"/><use xlink:href="#L1_2" x="0" y="0"/><use xlink:href="#L1_2" x="350" y="0"/><use xlink:href="#L1_2" x="-350" y="350"/><use xlink:href="#L1_2" x="0" y="350"/><use xlink:href="#L1_2" x="350" y="350"/></pattern><rect x="0" y="0" width="100%" height="100%" fill="url(#pattern_L1_2)"/></g></svg>