<svg id="Capa_2" data-name="Capa 2" xmlns="http://www.w3.org/2000/svg" viewBox="0 0 1027.54 707.34"><defs><style>.cls-1{fill:#fff;}</style></defs><title>silueta logo</title><path class="cls-1" d="M777.43,270.93a37.36,37.36,0,0,0,4-1.86c-.72-.17-1.43-.35-2.13-.57a29.48,29.48,0,0,1-5.52-2.35,27.64,27.64,0,0,1-2.57-1.56c-.28-.19-.55-.39-.82-.59-.27.2-.54.4-.82.59a27.61,27.61,0,0,1-2.57,1.56,29.47,29.47,0,0,1-5.52,2.35c-.56.18-1.13.33-1.71.48a34.06,34.06,0,0,0,4.06,2,18.07,18.07,0,0,0,6.78,1.37A18.63,18.63,0,0,0,777.43,270.93Z"/><path class="cls-1" d="M1022.89,269.37c-6.25-5.89-16.43-3.84-19.18-3.29-10.26,2.07-17.17,8.78-24.66,17.54C968,296.56,954,313.26,942.33,342.81a211.85,211.85,0,0,0-10.41,34.53c-2.62,12.88-7.48,37.88-1.64,68,2.43,12.51,3.48,9.32,9.86,34,4.5,17.41,8.08,31.24,9.86,48.78,1.94,19.15,3.41,33.61-1.1,51-3.62,13.93-7.75,16.87-16.45,32.86-1.16-13.11-2.83-24.46-5.06-30.67-7.4-20.55-25.48-56.72-30.83-62.89s-2.19-79.6-3.29-101-2.19-51.79-2.19-51.79-7.4-62.75-55.08-65.49c-.56,0-1.11-.09-1.67-.14-.87-.27-8.52-2.63-20.08-5l-1.59-11.11C905.6,266.54,965.8,196.63,965.8,158.47c0-17.48-9.6-35.77-25.29-52.93L936,0,880.17,60.35l-1.51-.82c-34.61-18.28-74.47-30.3-109.61-30.4-39.47-.12-80.6,10.75-115,28.46l-.74.39L597.91.53l-4.28,104.15c-.23.29-.48.58-.72.87C579.93,122,572.3,140,572.3,158.47c0,65,87.54,106.57,150.28,122.26l-1.14,14.34c-7,1.49-12.66,3-16.51,4.19-1.57.39-2.75.68-3.47.81-8.77,1.64-49.05,18.63-54.26,56.72S642,516.54,642,516.54s-30.07,32-34,82.34q-.38,4.84-.66,9.75C572.71,555.8,535.79,500,529.1,491.6c-13.15-16.44-58.37-86.32-62.48-96.18s22.2,14.8,52.61,6.58c21.4-5.78,24.9-28.66,25.09-41.71a29.92,29.92,0,0,0-3.9-15.14c-7.26-12.87-23.57-45.09-26.11-78.79C511,222.78,516.77,163.59,511,148.8S493.75,120,470.73,118.38C453,117.11,390,144.57,361.94,157.29a15.17,15.17,0,0,1-19.75-6.8c-2.82-5.46-6.13-10.89-8.75-12.39-5.75-3.29-8.63-11.1-42.34-9s-32.06-3.29-33.5-4.52-13.56-18.09-30.42-18.7-44.19,9-57.55,22.81-26.51,29.18-33.91,45.21S106.6,236.13,92.37,249.5c-10.28,9.66-8.84,15.62-54.46,15.21-29-.26-36.24,13.58-37.67,23.71A24.52,24.52,0,0,0,4,305.12c4.25,6.61,12.43,16.61,24.85,20.84,19.32,6.58,28.77,12.33,68.64,2.47a133.59,133.59,0,0,0,38.6-16.63,41.79,41.79,0,1,1,55.83-54.24,51.24,51.24,0,1,1,1.56,28,41.81,41.81,0,0,1-36,29.77,11.8,11.8,0,0,1,.09,8.09c-3.48,10.28-9.4,21.07-19.43,29.24-26.72,21.79-26.72,14-59.19,25.07-30.79,10.52-29.8,52.84-29.61,57.19,0,.25,0,.47,0,.72-.11,4.31-.32,46.42,31.25,67.46,29.67,19.78,47.59,21,51.14,21a11.45,11.45,0,0,1,1.49.11c6.41.87,47.93,6,70.27-4.64,24.25-11.51,23.84-9,23.84-9s0,28,21.79,31.65a268.24,268.24,0,0,0,30.89,3.54,12,12,0,0,1,8.33,4l.86,1a3.32,3.32,0,0,0,.3.4c4.42,5,9.26,10.54,14.44,16.83l1.6,2,.46.57q1.34,1.65,2.6,3.25l.39.49,1.63,2.08c6.59,8.46,13.62,18.25,21,29.87C338,616.56,340,621.9,340,621.9c.9,1.71,1.68,3.42,2.39,5.12,10.7,30.77-1.25,57.88,15.39,70.73h0a24.47,24.47,0,0,0,2.24,1.54c3.2,1.95,1.31-.14,32.58,2.74,4.82.44,7.24.67,69.85,1.44l186.9,3.85a12.08,12.08,0,0,0,4.55-.78L916.3,707S927,701.3,931.5,692.35a5.76,5.76,0,0,0,4.25-2.08c19.73-23,39.13-73.82,41.65-89.33a317.43,317.43,0,0,0-.55-101.39c-5.93-34.32-13.69-44.34-14.25-74-.7-37.2,9.06-61.1,11.51-66.86,7.94-18.66,13.7-32.2,28-42.75,9.12-6.75,17.56-9.19,21.92-18.63C1027.76,289.15,1030,276.08,1022.89,269.37Zm-937.65,56c-5,1.64-18.76,5.88-34.71,1a55.14,55.14,0,0,1-16-8.1c-7.43-5.22-14.29-12.52-13.3-13.88.78-1.07,5.79,2.32,16.39,6.36,7.41,2.83,14.17,5.4,22.37,6.36,7.85.92,14.49-.16,27.77-2.31,14-2.28,19.34-4.31,19.86-3.09C108.4,313.51,97.73,321.31,85.24,325.36ZM244.82,128.62c-.22.31-.92.92-6.38-.38-9-2.14-12.19-5-16.7-6-3.85-.84-7.94-.12-16.89,4.5-21.92,11.34-32.85,25.36-34.53,24s6.2-17.09,20.46-29.09c5.51-4.63,12.27-10.17,22.52-11.45,2.77-.34,11.36-1.29,19.71,3.57C240.62,118.23,246.34,126.52,244.82,128.62Zm182.62,182c1.44-.14,2.4,5.56,6.3,15.62,1.16,3,5.62,14.47,11.92,24.11,3.92,6,14.27,21.84,32.34,28.22,11.11,3.93,20,2.46,20.14,4.52s-8.8,5.57-17.81,5.34c-9.64-.24-16.78-4.74-21.79-7.81-7.6-4.66-12-9.86-16.44-15.21-6-7.26-13.27-16-16.17-28.91C423.08,323.78,425.3,310.81,427.43,310.61ZM66.82,432.14a38.91,38.91,0,1,1,38.91,38.91A38.91,38.91,0,0,1,66.82,432.14Zm139.75,80.63c-16.87,6.51-27.83,8.62-48.48,9.22-12.12.35-23.27-1-42.25-6.52-14.6-4.25-27.72-12.65-27.15-14.41.81-2.5,45.89,15.92,85.13,9.88,26.52-4.09,52.66-13.55,61.78-17.05a.65.65,0,0,1,.59,1.16C230.19,498.92,216.8,508.82,206.57,512.77Zm69.6,13.36c-11.47.93-20.08-2.19-25.21-4.11A67,67,0,0,1,230.68,510c12.8-8,23.21-15.33,31-21.1,11.58-8.61,18.67-13.89,27.4-22.47A190.25,190.25,0,0,0,312.34,439c11-15.71,14.76-26.34,17.81-25.48,1.09.31,1.62,1.94,2.47,18.36.69,13.45,1,20.28.55,26-.52,6.15-1.07,12.75-3.84,21.1a78,78,0,0,1-11.51,21.92C314,506,309.09,512.62,300,518.18A55.2,55.2,0,0,1,276.17,526.13ZM761.8,274.4a14.45,14.45,0,0,1-4.16-5,26,26,0,0,1-8.12.11,26.78,26.78,0,0,1-11-4.22,33.05,33.05,0,0,1-8.27-7.79,52.06,52.06,0,0,0,9.5,5.49,27.63,27.63,0,0,0,5,1.68,25.48,25.48,0,0,0,5.11.74,26.12,26.12,0,0,0,10-1.53,30.69,30.69,0,0,0,4.65-2.11c.75-.41,1.47-.87,2.18-1.34.38-.25.78-.54,1.15-.82.07-5.85.24-11.7.6-17.55q.13-2.34.33-4.69c.13-1.56.22-3.13.39-4.69.26-2.69.55-5.38.94-8.07h-.48c-12.15-.32-24.11-9.66-22.94-15.93.51-2.71,3.37-4.26,7-6.23.86-.47,15.71-8.19,30.67-1.32,3.88,1.78,9.06,4.16,9.58,8.1.86,6.53-11.36,15.28-23.46,15.38.39,2.69.68,5.38.94,8.07.17,1.56.26,3.13.39,4.69s.24,3.13.33,4.69c.36,5.85.53,11.7.6,17.55.37.28.77.56,1.15.82.71.46,1.43.93,2.18,1.34a30.68,30.68,0,0,0,4.65,2.11,26.12,26.12,0,0,0,10,1.53,25.48,25.48,0,0,0,5.11-.74,27.63,27.63,0,0,0,5-1.68,52.06,52.06,0,0,0,9.5-5.49,33.05,33.05,0,0,1-8.27,7.79,26.79,26.79,0,0,1-11,4.22,25.88,25.88,0,0,1-7.63,0,15.72,15.72,0,0,1-4.22,4.81,15.3,15.3,0,0,1-5.26,2.57l-7.37,0A14.19,14.19,0,0,1,761.8,274.4ZM930,95.07l0,0-1.55-1.4L926.54,92l-1.44-1.24-1.93-1.64-1.47-1.21c-.67-.55-1.33-1.1-2-1.64l-1.41-1.11q-2.41-1.9-4.9-3.76l-.75-.57-2-1.48-1.74-1.26-2-1.38L905,75.36l-1.93-1.3-.3-.2,28.06-55.91ZM917.28,24.23c-8.48,13-18.51,25.22-27,38.25l-5.23-2.78Zm-.15,114.85c0,12.28-25,36.32-61.9,36.24-15.51,0-61.9-12.59-61.9-36.24,0-19,32.41-36.32,61.9-36.24C881.87,102.91,917.13,122.34,917.13,139.08Zm-207-99.62c2.68-.66,5.32-1.22,7.85-1.71h0a227.56,227.56,0,0,1,51.68-7.06c27.13-.27,54.4,8.48,54.4,8.48l-54.4,69.89L720,40.52c-2.44.65-5,1.39-7.8,2.23-9.38,2.85-16.37,5.6-27.75,10.07C665.27,60.37,659.2,63.73,659,63.3,658.56,62.47,680.22,46.82,710.16,39.46ZM599.83,97.65l2.71-79,26.75,53.75Zm22.52,41.43c0-19,32.41-36.32,61.9-36.24,26.64.07,61.9,19.5,61.9,36.24,0,12.28-25,36.32-61.9,36.24C668.73,175.29,622.34,162.73,622.34,139.08ZM727.63,649.44c-2.47,53.44-18.09,46-18.09,46V454.2c16.85,5.34,18.09,47.27,18.09,47.27S730.1,596,727.63,649.44Zm96.87,46s-15.62,7.4-18.09-46,0-148,0-148,1.23-41.93,18.09-47.27Zm110-36.21v0Zm-1.32-38.64v0Zm1.31,35.89v0Zm-.07-5.72v0Zm-.13-6v0Zm-.09-3h0Zm-.22-6v0Zm.49,28.56v0Zm0,2.62v0Zm0,2.47v0Zm-.06,2.22v0Zm-.16,4.45,0,.46Zm-.1,2,0,.29Zm-.12,2,0,.34Zm-.12,1.62,0,.41Zm-.16,1.87v0Zm-.14,1.32,0,.34Zm-.16,1.29,0,.25Zm-.2,1.26,0,.21Zm-.18.9-.05.23Z"/><circle class="cls-1" cx="155.33" cy="284.58" r="14.11"/><circle class="cls-1" cx="253.02" cy="286.91" r="19.18"/><circle class="cls-1" cx="683.92" cy="140.92" r="20.55"/><circle class="cls-1" cx="853.82" cy="140.92" r="20.55"/><circle class="cls-1" cx="120.94" cy="427.48" r="13.98"/></svg>