<svg xmlns="http://www.w3.org/2000/svg" xmlns:xlink="http://www.w3.org/1999/xlink" xmlns:fi="http://pattern.flaticon.com/" x="0" y="0" width="700" height="350" viewBox="0 0 700 350"><rect x="0px" y="0px" width="100%" height="100%" opacity="1" fill="#ffaca6"/><defs><path d="m460.145 410.489c33.944-44.728 51.855-98.014 51.855-154.489 0-68.38-26.629-132.667-74.98-181.02-48.352-48.351-112.64-74.98-181.02-74.98s-132.668 26.629-181.02 74.98c-48.351 48.353-74.98 112.64-74.98 181.02s26.629 132.667 74.98 181.02c48.352 48.351 112.64 74.98 181.02 74.98 56.481 0 109.762-17.911 154.488-51.856l41.572 41.572c6.846 6.845 15.837 10.268 24.828 10.268 8.992 0 17.983-3.422 24.829-10.268 13.688-13.69 13.688-35.965 0-49.656zm10.966-263.075-97.971 97.971-28.442-28.442 104.651-104.65c8.212 11.021 15.501 22.768 21.762 35.121zm21.139 60.885-30.405-30.405 16.011-16.011c6.293 14.778 11.147 30.309 14.394 46.416zm-41.012-19.799 44.674 44.674c.71 7.517 1.088 15.128 1.088 22.826 0 11.127-.751 22.119-2.212 32.936l-71.993-71.993zm-39.049 39.05 79.461 79.461c-3.175 14.845-7.75 29.29-13.676 43.208l-94.227-94.227zm27.757-127.069-105.855 105.855-28.442-28.442 105.853-105.854c10.25 8.678 19.765 18.193 28.444 28.441zm-234.873-80.048 79.362 79.363-28.442 28.442-94.099-94.099c13.784-5.869 28.228-10.477 43.179-13.706zm159.492 20.446c12.354 6.26 24.102 13.548 35.124 21.76l-104.648 104.648-28.441-28.442zm-30.474 9.26-30.39-30.39c16.099 3.245 31.623 8.096 46.394 14.385zm-55.265-34.051 44.658 44.658-28.442 28.442-71.934-71.935c10.758-1.474 21.735-2.253 32.892-2.253 7.699 0 15.31.378 22.826 1.088zm-237.947 348.477 97.966-97.966 28.442 28.442-104.648 104.648c-8.212-11.022-15.5-22.77-21.76-35.124zm-21.129-60.864 30.39 30.39-16.005 16.005c-6.289-14.772-11.14-30.296-14.385-46.395zm40.997 19.783-44.659-44.658c-.71-7.516-1.088-15.127-1.088-22.826 0-11.157.779-22.134 2.254-32.893l71.934 71.935zm39.049-39.049-79.363-79.363c3.229-14.951 7.837-29.394 13.706-43.178l94.099 94.099zm-27.756 127.067 105.854-105.854 28.443 28.443-105.856 105.855c-10.248-8.679-19.763-18.194-28.441-28.444zm75.375 59.609c-12.353-6.261-24.1-13.55-35.122-21.763l104.651-104.65 28.442 28.442zm30.479-9.266 30.405 30.405c-16.107-3.247-31.638-8.101-46.416-14.394zm55.28 34.067-44.673-44.673 28.442-28.442 30.412 30.412c1.465 1.464 3.385 2.197 5.304 2.197s3.839-.732 5.304-2.197c2.929-2.929 2.929-7.678 0-10.606l-30.413-30.413 28.443-28.443 94.228 94.228c-13.918 5.927-28.363 10.501-43.209 13.676l-27.836-27.836c-2.93-2.929-7.678-2.929-10.607 0s-2.929 7.678 0 10.606l20.368 20.368c-10.818 1.46-21.81 2.211-32.937 2.211-7.699 0-15.31-.378-22.826-1.088zm131.512-24.686-323.802-323.801c6.261-12.354 13.549-24.101 21.761-35.123l337.125 337.124c-11.169 8.331-22.894 15.609-35.084 21.8zm126.423 19.883c-7.842 7.843-20.601 7.842-28.442 0l-390.62-390.619c8.678-10.249 18.193-19.764 28.442-28.442l118.795 118.794c1.465 1.464 3.385 2.197 5.304 2.197s3.839-.732 5.304-2.197c2.929-2.929 2.929-7.678 0-10.606l-117.59-117.59c11.022-8.213 22.77-15.501 35.123-21.762l323.8 323.8c-6.191 12.191-13.468 23.916-21.798 35.086l-198.323-198.321c-2.929-2.928-7.677-2.929-10.607 0-2.929 2.929-2.929 7.678 0 10.606l250.612 250.611c7.841 7.842 7.841 20.602 0 28.443z" transform="matrix(0.1171875 0 0 0.1171875 273 22)" id="L1_2"/><g transform="matrix(0.1171875 0 0 0.1171875 276 211.00000041484827)" id="L1_3"><path d="M489.924,111.231c-14.257-14.257-33.212-22.108-53.377-22.108c-3.684,0-7.331,0.262-10.93,0.784    c3.442-23.269-4.152-47.134-21.346-64.328C390.012,11.32,371.054,3.467,350.888,3.467s-39.124,7.853-53.383,22.111    c-13.366,13.365-21.19,31.118-22.034,49.988c-0.7,15.663,3.442,30.988,11.77,44.013L120.246,286.576    c-12.901-9.526-28.475-14.683-44.756-14.683c-20.164,0-39.121,7.852-53.378,22.11C7.854,308.262,0,327.22,0,347.386    s7.854,39.124,22.112,53.383c14.257,14.257,33.212,22.108,53.376,22.108c3.684,0,7.331-0.262,10.93-0.784    c-3.443,23.269,4.152,47.134,21.346,64.328c14.259,14.259,33.216,22.111,53.383,22.111c20.165,0,39.124-7.852,53.383-22.111    c14.067-14.067,21.918-32.768,22.107-52.657c0.157-16.551-5.001-32.378-14.679-45.478l165.934-165.934    c13.596,11.494,30.642,17.756,48.649,17.756c20.165,0,39.124-7.853,53.382-22.111C519.358,188.56,519.358,140.666,489.924,111.231    z M475.781,203.853c-10.482,10.481-24.417,16.253-39.24,16.253c-14.823,0-28.759-5.772-39.241-16.253    c-0.695-0.696-1.397-1.437-2.084-2.204c-1.833-2.044-4.427-3.244-7.172-3.318c-2.756-0.073-5.4,0.983-7.343,2.925l-179.37,179.369    c-3.85,3.849-3.913,10.071-0.142,13.998c20.758,21.617,20.397,56.454-0.803,77.655c-10.482,10.481-24.418,16.253-39.24,16.253    c-14.823,0-28.758-5.772-39.239-16.253c-15.959-15.958-20.669-39.737-12.002-60.577c1.555-3.739,0.701-8.048-2.162-10.912    c-1.913-1.914-4.471-2.929-7.073-2.929c-1.293,0-2.597,0.251-3.838,0.767c-6.78,2.819-13.961,4.249-21.343,4.249    c-14.821,0-28.754-5.771-39.233-16.25c-10.483-10.483-16.255-24.418-16.255-39.241c0-14.822,5.772-28.758,16.254-39.24    c10.48-10.481,24.414-16.252,39.235-16.252c14.4,0,28.044,5.486,38.419,15.449c3.926,3.769,10.148,3.708,13.998-0.143    l179.513-179.512c3.646-3.646,3.922-9.466,0.638-13.441c-18.295-22.144-16.752-54.184,3.59-74.526    c10.482-10.482,24.418-16.254,39.24-16.254c14.823,0,28.758,5.772,39.24,16.254c15.958,15.959,20.668,39.737,12.001,60.578    c-1.555,3.739-0.701,8.048,2.163,10.912c2.863,2.864,7.172,3.717,10.912,2.163c6.78-2.82,13.962-4.249,21.344-4.249    c14.821,0,28.754,5.771,39.234,16.25C497.417,147.011,497.417,182.217,475.781,203.853z"/><path d="M219.28,251.186c-3.905-3.905-10.238-3.905-14.143,0l-46.639,46.638c-3.905,3.905-3.905,10.237,0,14.143    c1.953,1.953,4.511,2.929,7.071,2.929c2.559,0,5.119-0.977,7.071-2.929l46.639-46.638    C223.185,261.424,223.185,255.093,219.28,251.186z"/><path d="M240.528,229.938c-3.905-3.905-10.238-3.905-14.143,0l-0.229,0.23c-3.905,3.905-3.905,10.238,0,14.143    c1.953,1.953,4.512,2.929,7.071,2.929c2.559,0,5.118-0.977,7.071-2.929l0.229-0.23    C244.433,240.176,244.433,233.843,240.528,229.938z"/></g><g transform="matrix(0.1171875 0 0 0.1171875 78 270)" id="L1_4"><path d="m342.382812 239.351562c-23.039062-35.941406-62.277343-57.402343-104.964843-57.402343-42.683594 0-81.925781 21.460937-104.960938 57.402343l-55.515625 86.605469c-9.210937 14.371094-13.460937 30.96875-12.292968 47.996094 1.167968 17.03125 7.648437 32.890625 18.738281 45.871094 11.097656 12.976562 25.761719 21.84375 42.40625 25.648437 16.644531 3.800782 33.707031 2.179688 49.339843-4.691406l1.019532-.453125c39.339844-16.957031 84.304687-16.804687 123.546875.453125 10.121093 4.449219 20.84375 6.699219 31.664062 6.699219 5.882813 0 11.800781-.667969 17.664063-2.003907 16.644531-3.800781 31.308594-12.667968 42.410156-25.644531 11.09375-12.976562 17.578125-28.839843 18.75-45.871093 1.171875-17.035157-3.078125-33.632813-12.289062-48.007813zm26.246094 160.972657c-14.121094 16.507812-36.964844 21.726562-56.847656 12.984375-23.632812-10.394532-49-15.589844-74.375-15.589844-25.351562 0-50.714844 5.191406-74.332031 15.574219l-.671875.296875c-19.730469 8.34375-42.238282 3.058594-56.203125-13.265625-14.105469-16.511719-15.710938-39.886719-3.992188-58.171875l55.519531-86.605469c17.492188-27.289063 47.28125-43.582031 79.691407-43.582031 32.410156 0 62.203125 16.292968 79.699219 43.582031l55.511718 86.601563c11.722656 18.292968 10.113282 41.671874-4 58.175781zm0 0"/><path d="m91.894531 239.238281c16.515625-6.34375 29.0625-19.652343 35.332031-37.476562 5.960938-16.960938 5.472657-36.109375-1.382812-53.921875-6.859375-17.800782-19.335938-32.332032-35.128906-40.921875-16.597656-9.019531-34.828125-10.488281-51.316406-4.132813-33.171876 12.753906-48.394532 53.746094-33.929688 91.398438 11.554688 29.96875 38.503906 48.886718 65.75 48.886718 6.957031 0 13.933594-1.234374 20.675781-3.832031zm-58.417969-55.835937c-8.523437-22.1875-1.035156-45.789063 16.703126-52.609375 3.203124-1.234375 6.589843-1.847657 10.046874-1.847657 5.335938 0 10.847657 1.457032 16.152344 4.34375 9.539063 5.183594 17.160156 14.183594 21.457032 25.335938 4.292968 11.160156 4.675781 22.941406 1.074218 33.179688-3.300781 9.382812-9.617187 16.28125-17.78125 19.417968l-.015625.007813c-17.714843 6.828125-39.085937-5.660157-47.636719-27.828125zm0 0"/><path d="m199.613281 171.386719c41.46875 0 75.207031-38.4375 75.207031-85.683594 0-47.257813-33.738281-85.703125-75.207031-85.703125-41.464843 0-75.199219 38.445312-75.199219 85.703125 0 47.246094 33.734376 85.683594 75.199219 85.683594zm0-141.375c24.917969 0 45.195313 24.984375 45.195313 55.691406 0 30.695313-20.277344 55.671875-45.195313 55.671875s-45.1875-24.976562-45.1875-55.671875c0-30.707031 20.269531-55.691406 45.1875-55.691406zm0 0"/><path d="m329.496094 192.4375h.003906c6.378906 2.117188 12.886719 3.128906 19.367188 3.128906 30.242187 0 59.714843-22.011718 70.960937-55.839844 6.476563-19.472656 6.050781-40.0625-1.199219-57.972656-7.585937-18.746094-21.644531-32.355468-39.589844-38.324218-17.945312-5.960938-37.363281-3.476563-54.664062 7-16.527344 10.011718-29.191406 26.246093-35.65625 45.71875-13.652344 41.078124 4.640625 84.273437 40.777344 96.289062zm-12.296875-86.824219c4.222656-12.714843 12.292969-23.191406 22.726562-29.511719 9.652344-5.847656 20.183594-7.335937 29.648438-4.191406 9.460937 3.148438 17 10.640625 21.234375 21.101563 4.574218 11.304687 4.769531 24.53125.539062 37.246093-8.433594 25.375-31.933594 40.492188-52.382812 33.699219-20.433594-6.796875-30.199219-32.96875-21.765625-58.34375zm0 0"/><path d="m487.875 182.4375-.011719-.011719c-28.597656-21.125-71.367187-11.96875-95.347656 20.421875-23.957031 32.40625-20.210937 75.972656 8.34375 97.113282 10.414063 7.714843 22.71875 11.402343 35.3125 11.402343 21.949219 0 44.785156-11.203125 60.046875-31.804687 23.957031-32.40625 20.214844-75.972656-8.34375-97.121094zm-15.777344 79.265625c-14.160156 19.113281-38.101562 25.453125-53.378906 14.136719-15.265625-11.300782-16.195312-36.042969-2.074219-55.144532 9.386719-12.679687 23.097657-19.734374 35.734375-19.734374 6.390625 0 12.507813 1.804687 17.648438 5.605468 15.253906 11.3125 16.179687 36.046875 2.070312 55.136719zm0 0"/></g><path d="M433.601,67.001c-24.7-24.7-57.4-38.2-92.3-38.2s-67.7,13.6-92.4,38.3l-12.9,12.9l-13.1-13.1   c-24.7-24.7-57.6-38.4-92.5-38.4c-34.8,0-67.6,13.6-92.2,38.2c-24.7,24.7-38.3,57.5-38.2,92.4c0,34.9,13.7,67.6,38.4,92.3   l187.8,187.8c2.6,2.6,6.1,4,9.5,4c3.4,0,6.9-1.3,9.5-3.9l188.2-187.5c24.7-24.7,38.3-57.5,38.3-92.4   C471.801,124.501,458.301,91.701,433.601,67.001z M414.401,232.701l-178.7,178l-178.3-178.3c-19.6-19.6-30.4-45.6-30.4-73.3   s10.7-53.7,30.3-73.2c19.5-19.5,45.5-30.3,73.1-30.3c27.7,0,53.8,10.8,73.4,30.4l22.6,22.6c5.3,5.3,13.8,5.3,19.1,0l22.4-22.4   c19.6-19.6,45.7-30.4,73.3-30.4c27.6,0,53.6,10.8,73.2,30.3c19.6,19.6,30.3,45.6,30.3,73.3   C444.801,187.101,434.001,213.101,414.401,232.701z" transform="matrix(0.1271992176771164 0 0 0.1271992176771164 118 100.00000026396322)" id="L1_6"/></defs><g fi:class="KUsePattern"><pattern id="pattern_L1_2" width="350" height="350" patternUnits="userSpaceOnUse"><use xlink:href="#L1_2" x="-350" y="-350"/><use xlink:href="#L1_2" x="0" y="-350"/><use xlink:href="#L1_2" x="350" y="-350"/><use xlink:href="#L1_2" x="-350" y="0"/><use xlink:href="#L1_2" x="0" y="0"/><use xlink:href="#L1_2" x="350" y="0"/><use xlink:href="#L1_2" x="-350" y="350"/><use xlink:href="#L1_2" x="0" y="350"/><use xlink:href="#L1_2" x="350" y="350"/></pattern><rect x="0" y="0" width="100%" height="100%" fill="url(#pattern_L1_2)"/></g><g fi:class="KUsePattern"><pattern id="pattern_L1_3" width="350" height="350" patternUnits="userSpaceOnUse"><use xlink:href="#L1_3" x="-350" y="-350"/><use xlink:href="#L1_3" x="0" y="-350"/><use xlink:href="#L1_3" x="350" y="-350"/><use xlink:href="#L1_3" x="-350" y="0"/><use xlink:href="#L1_3" x="0" y="0"/><use xlink:href="#L1_3" x="350" y="0"/><use xlink:href="#L1_3" x="-350" y="350"/><use xlink:href="#L1_3" x="0" y="350"/><use xlink:href="#L1_3" x="350" y="350"/></pattern><rect x="0" y="0" width="100%" height="100%" fill="url(#pattern_L1_3)"/></g><g fi:class="KUsePattern" opacity="0.82"><pattern id="pattern_L1_4" width="350" height="350" patternUnits="userSpaceOnUse"><use xlink:href="#L1_4" x="-350" y="-350"/><use xlink:href="#L1_4" x="0" y="-350"/><use xlink:href="#L1_4" x="350" y="-350"/><use xlink:href="#L1_4" x="-350" y="0"/><use xlink:href="#L1_4" x="0" y="0"/><use xlink:href="#L1_4" x="350" y="0"/><use xlink:href="#L1_4" x="-350" y="350"/><use xlink:href="#L1_4" x="0" y="350"/><use xlink:href="#L1_4" x="350" y="350"/></pattern><rect x="0" y="0" width="100%" height="100%" fill="url(#pattern_L1_4)"/></g><g fi:class="KUsePattern" opacity="0.79"><pattern id="pattern_L1_6" width="350" height="350" patternUnits="userSpaceOnUse"><use xlink:href="#L1_6" x="-350" y="-350"/><use xlink:href="#L1_6" x="0" y="-350"/><use xlink:href="#L1_6" x="350" y="-350"/><use xlink:href="#L1_6" x="-350" y="0"/><use xlink:href="#L1_6" x="0" y="0"/><use xlink:href="#L1_6" x="350" y="0"/><use xlink:href="#L1_6" x="-350" y="350"/><use xlink:href="#L1_6" x="0" y="350"/><use xlink:href="#L1_6" x="350" y="350"/></pattern><rect x="0" y="0" width="100%" height="100%" fill="url(#pattern_L1_6)"/></g></svg>