<svg width="430" height="522" viewBox="0 0 430 522" fill="none" xmlns="http://www.w3.org/2000/svg">
<g clip-path="url(#clip0)">
<path d="M38.0139 51.3895C34.0611 57.6748 35.0453 67.4452 40.5069 75.9454C44.8294 82.6911 52.9711 87.1553 58.3909 85.7589C61.4163 85 64.2709 82.3906 65.642 79.2161C67.0174 75.9853 67.3874 70.7276 66.4923 66.8716C63.7593 55.1872 55.5784 46.7626 46.7759 46.5447C42.9108 46.4482 40.137 47.9896 38.0139 51.3895Z" fill="#FD746C"/>
<path d="M75.6007 44.0189C72.1184 49.6898 71.082 58.1475 72.9842 65.5003C73.8572 68.9023 75.0963 71.2015 77.6159 74.1352C79.7459 76.6153 80.2262 76.991 82.6917 78.0268C87.5362 80.1199 90.4407 79.4648 94.7419 75.2979C96.9357 73.2036 97.4147 72.4768 98.8118 69.3325C100.11 66.3785 100.419 64.904 100.691 60.939C101.066 55.9926 100.582 52.6768 98.7345 47.5894C97.5894 44.4211 94.3511 40.5281 91.4828 38.8399C88.7745 37.2768 84.4206 36.9171 82.0398 38.1209C79.6029 39.3204 77.0506 41.6701 75.6007 44.0189Z" fill="#FD746C"/>
<path d="M21.5534 90.6992C19.3702 94.5186 19.8791 100.861 22.8348 106.994C24.1306 109.665 28.1439 114.521 30.4762 116.197C34.9545 119.393 41.7829 121.043 45.387 119.735C49.0776 118.405 51.7832 114.032 51.8598 109.289C51.9355 103.811 49.7804 98.304 45.7543 93.616C38.8709 85.6012 29.4475 83.1311 24.0273 87.8913C23.1203 88.6702 22.0064 89.9422 21.5534 90.6992Z" fill="#FD746C"/>
<path d="M62.6342 106.236C59.0076 110.455 55.8634 116.886 53.7583 124.528C51.3904 133.025 50.7705 142.702 52.3137 146.211C54.7541 151.683 60.0359 154.347 65.6546 152.937C68.5935 152.2 71.6181 150.706 76.5776 147.55C81.6839 144.321 84.5399 142.814 87.5866 141.774C92.5737 140.118 95.5438 140.09 104.616 141.601C108.495 142.263 112.503 142.71 113.501 142.588C119.199 142.004 123.92 138.265 124.421 133.894C125.024 128.541 121.081 121.258 113.351 113.603C104.967 105.248 99.9864 101.59 92.9532 98.5384C87.7539 96.2769 83.1015 95.7531 78.1526 96.9027C72.6592 98.1521 66.2307 102.044 62.6342 106.236Z" fill="#FD746C"/>
<path d="M106.893 70.485C104.364 74.0236 102.947 78.184 102.581 83.3855C102.121 89.8237 103.042 93.7098 105.87 97.4302C108.416 100.762 110.276 101.949 113.493 102.392C115.452 102.654 116.567 102.485 118.287 101.796C127.072 98.14 131.948 86.0173 129.116 74.8907C128.221 71.4023 128.1 71.1386 125.71 68.3561C123.424 65.6946 122.996 65.3793 120.907 64.5984C119.614 64.1324 117.854 63.8571 116.886 63.953C113.345 64.4183 109.479 66.9506 106.893 70.485Z" fill="#FD746C"/>
<path d="M167.47 165.608C165.368 168.359 164.713 170.288 164.437 174.309C164.13 178.356 165.165 183.354 167.211 187.693C168.814 191.15 173.568 196.685 176.302 198.279C180.304 200.675 184.667 201.657 187.472 200.825C190.216 200.045 192.868 197.505 194.23 194.443C198.793 184.218 192.059 167.876 181.341 163.102C175.41 160.418 170.794 161.282 167.47 165.608Z" fill="#FD746C"/>
<path d="M205.575 157.372C200.027 164.186 199.1 176.807 203.489 185.282C205.192 188.55 208.256 191.751 211.012 193.063C213.984 194.505 217.715 194.506 220.311 193.065C228.775 188.423 232.019 175.074 227.583 163.118C225.618 157.711 221.238 153.59 216.425 152.573C213.087 151.867 208.32 153.963 205.575 157.372Z" fill="#FD746C"/>
<path d="M150.785 204.9C146.556 211.843 150.254 224.223 158.441 230.697C163.084 234.33 169.165 236.15 173.318 235.053C174.935 234.61 175.587 234.208 177.146 232.659C179.409 230.4 180.358 228.324 180.492 225.055C180.819 219.625 179.105 214.632 175.239 209.702C171.402 204.746 166.686 201.702 161.199 200.634C157.856 199.983 152.403 202.197 150.785 204.9Z" fill="#FD746C"/>
<path d="M70.7593 300.116C67.98 304.342 67.2553 309.431 68.6542 315.219C70.9873 325.093 77.295 332.498 85.2957 334.719C89.3913 335.879 91.6345 335.371 94.7787 332.671C96.8345 330.905 97.3093 330.235 98.1068 328.288C102.224 317.973 95.5512 301.947 85.1655 297.255C79.1789 294.566 73.6982 295.647 70.7593 300.116Z" fill="#FD746C"/>
<path d="M108.48 292.472C103.663 299.342 103.006 310.995 106.976 319.042C108.692 322.508 110.376 324.53 112.933 326.223C115.382 327.851 117.986 328.558 120.661 328.31C122.512 328.14 123.013 327.867 125.509 325.88C127.673 324.179 128.628 323.15 129.814 321.29C133.698 315.169 134.349 306.201 131.525 297.958C130.575 295.201 130.077 294.315 128.077 291.986C125.25 288.633 122.957 287.186 119.657 286.709C118.343 286.524 116.523 286.668 115.568 286.963C113.303 287.752 109.973 290.297 108.48 292.472Z" fill="#FD746C"/>
<path d="M54.0226 339.715C50.938 345.36 52.994 354.788 58.7604 361.502C62.8385 366.251 67.7486 368.971 73.0582 369.403C76.569 369.699 78.8897 368.914 81.1005 366.595C83.1819 364.492 84.074 362.045 84.1604 358.292C84.2796 352.987 82.1679 347.653 78.0378 342.844C74.0117 338.156 69.1923 335.358 64.1766 334.778C60.285 334.284 55.7914 336.514 54.0226 339.715Z" fill="#FD746C"/>
<path d="M189.975 223.007C185.05 229.445 181.125 241.329 180.381 251.9C179.913 258.451 180.352 260.859 182.535 263.767C185.332 267.513 188.892 269.028 193.158 268.307C196.625 267.695 199.524 266.361 205.404 262.625C216.545 255.474 220.595 254.623 233.325 256.723C240.724 257.937 242.276 257.97 245.051 257.164C252.856 254.875 255.162 248.69 251.261 240.479C249.796 237.427 245.661 232.307 240.926 227.65C233.166 220.021 228.315 216.514 221.554 213.596C215.04 210.782 208.166 210.852 201.585 213.772C198.28 215.244 192.263 220.044 189.975 223.007Z" fill="#FD746C"/>
<path d="M235.227 186.088C232.12 191.278 230.739 196.827 231.152 202.568C231.956 213.597 239.729 220.322 247.524 216.676C253.854 213.709 257.802 207.113 258.462 198.4C258.734 194.803 258.585 193.039 257.825 190.013C256.891 186.296 256.792 186.118 254.476 183.483C250.835 179.305 247.418 178.14 243.291 179.635C240.906 180.528 236.453 184.089 235.227 186.088Z" fill="#FD746C"/>
<path d="M92.8415 358.246C90.5281 361.547 86.8938 370.344 85.504 376.004C84.1572 381.47 83.45 390.434 84.0891 393.563C85.3671 399.455 91.0871 403.424 96.9787 402.516C99.7538 402.077 102.981 400.514 109.444 396.54C120.979 389.419 124.282 388.737 136.813 390.85C146.555 392.468 149.637 392.081 153.542 388.675C159.778 383.214 156.966 374.068 145.53 362.71C129.13 346.367 117.154 342.148 104.619 348.288C100.363 350.367 95.47 354.517 92.8415 358.246Z" fill="#FD746C"/>
<path d="M140.036 318.817C135.866 323.87 133.998 331.36 135.04 338.874C135.511 342.358 136.742 345.137 138.924 347.678C143.236 352.698 148.316 353.17 154.053 349.084C159.906 344.951 163.302 335.203 161.951 326.535C160.758 318.784 156.173 313.629 150.263 313.292C147.055 313.105 142.812 315.382 140.036 318.817Z" fill="#FD746C"/>
<path d="M217.184 410.114C214.941 414.353 214.644 419.023 216.233 424.91C219.016 435.185 226.175 442.542 234.564 443.746C235.878 443.931 237.698 443.787 238.654 443.492C248.865 440.03 249.378 423.194 239.654 411.627C236.074 407.397 232.807 405.368 228.098 404.472C223.917 403.701 219.328 406.066 217.184 410.114Z" fill="#FD746C"/>
<path d="M201.915 447.507C200.434 449.515 200.042 450.955 199.998 454.145C199.884 459.762 201.953 465.29 205.979 469.978C209.897 474.601 214.5 477.27 219.593 477.94C223.316 478.421 225.365 477.871 227.723 475.845C236.197 468.463 229.556 450.149 216.455 444.742C215.058 444.155 213.099 443.525 212.065 443.362C208.722 442.712 203.969 444.639 201.915 447.507Z" fill="#FD746C"/>
<path d="M254.874 402.497C252.29 407.134 251.203 413.27 251.88 419.257C253.427 432.802 264.392 441.042 272.655 434.944C280.02 429.512 282.63 417.443 278.821 406.525C276.149 398.887 269.365 394.046 263.24 395.417C261.053 395.929 256.281 399.975 254.874 402.497Z" fill="#FD746C"/>
<path d="M241.886 464.628C238.394 468.941 235.53 475.027 233.291 482.94C231.75 488.363 230.678 499.532 231.442 502.502C232.05 504.922 234.475 508.358 236.448 509.554C241.717 512.753 246.29 511.717 256.827 505.085C267.779 498.202 271.543 497.386 284.079 499.443C291.59 500.665 292.969 500.742 295.938 499.978C298.994 499.193 302.57 496.385 303.454 494.049C306.057 487.294 300.508 477.713 287.313 466.08C278.943 458.658 271.757 455.002 264.455 454.389C260.157 454.034 255.912 454.841 251.859 456.851C249.219 458.119 243.544 462.521 241.886 464.628Z" fill="#FD746C"/>
<path d="M286.137 428.989C282.762 433.989 281.348 441.09 282.38 447.981C283.365 454.755 288.625 460.328 294.154 460.467C299.658 460.575 305.946 454.807 308.436 447.308C310.168 441.984 309.878 434.245 307.767 429.646C304.906 423.379 298.971 420.384 293.686 422.61C291.206 423.637 287.85 426.519 286.137 428.989Z" fill="#FD746C"/>
</g>
<defs>
<clipPath id="clip0">
<rect width="267.807" height="510.309" fill="white" transform="translate(-106 174.484) rotate(-40.6571)"/>
</clipPath>
</defs>
</svg>
